G04 EAGLE Gerber X2 export*
%TF.Part,Single*%
%TF.FileFunction,Copper,L1,Top,Mixed*%
%TF.FilePolarity,Positive*%
%TF.GenerationSoftware,Autodesk,EAGLE,8.6.0*%
%TF.CreationDate,2018-02-22T08:32:46Z*%
G75*
%MOMM*%
%FSLAX34Y34*%
%LPD*%
%AMOC8*
5,1,8,0,0,1.08239X$1,22.5*%
G01*
%ADD10R,1.000000X1.100000*%
%ADD11C,2.095500*%
%ADD12P,4.123906X8X292.500000*%
%ADD13R,1.100000X1.000000*%
%ADD14R,1.000000X1.400000*%
%ADD15R,1.778000X1.778000*%
%ADD16C,1.778000*%
%ADD17R,0.600000X1.500000*%
%ADD18C,3.000000*%
%ADD19R,0.600000X2.200000*%
%ADD20C,4.300000*%
%ADD21C,3.216000*%
%ADD22C,2.550000*%
%ADD23R,0.660400X2.032000*%
%ADD24C,1.524000*%
%ADD25C,2.775000*%
%ADD26P,2.749271X8X202.500000*%
%ADD27R,1.400000X1.600000*%
%ADD28P,2.089446X8X292.500000*%
%ADD29C,1.930400*%
%ADD30C,0.406400*%
%ADD31C,0.756400*%
%ADD32C,0.609600*%
%ADD33C,0.304800*%
%ADD34C,0.762000*%

G36*
X179234Y307355D02*
X179234Y307355D01*
X179398Y307362D01*
X179458Y307375D01*
X179519Y307381D01*
X179677Y307424D01*
X179838Y307460D01*
X179894Y307483D01*
X179953Y307499D01*
X180101Y307570D01*
X180253Y307633D01*
X180305Y307666D01*
X180360Y307693D01*
X180493Y307788D01*
X180631Y307878D01*
X180689Y307929D01*
X180726Y307955D01*
X180768Y307998D01*
X180866Y308084D01*
X187216Y314434D01*
X187321Y314561D01*
X187433Y314682D01*
X187465Y314733D01*
X187504Y314780D01*
X187586Y314923D01*
X187674Y315061D01*
X187698Y315118D01*
X187728Y315171D01*
X187783Y315326D01*
X187845Y315478D01*
X187858Y315538D01*
X187879Y315595D01*
X187905Y315757D01*
X187940Y315918D01*
X187945Y315995D01*
X187952Y316039D01*
X187951Y316100D01*
X187959Y316230D01*
X187959Y447258D01*
X202982Y462281D01*
X299938Y462281D01*
X345441Y416778D01*
X345441Y391160D01*
X345452Y391032D01*
X345454Y390904D01*
X345472Y390808D01*
X345481Y390712D01*
X345514Y390588D01*
X345539Y390462D01*
X345574Y390371D01*
X345599Y390277D01*
X345654Y390162D01*
X345700Y390042D01*
X345751Y389958D01*
X345793Y389871D01*
X345849Y389792D01*
X345851Y389787D01*
X345867Y389766D01*
X345934Y389656D01*
X346019Y389554D01*
X346055Y389504D01*
X346086Y389474D01*
X346116Y389437D01*
X346123Y389429D01*
X346126Y389426D01*
X346134Y389417D01*
X367724Y366557D01*
X367874Y366424D01*
X368022Y366288D01*
X368042Y366274D01*
X368061Y366258D01*
X368232Y366154D01*
X368401Y366046D01*
X368424Y366036D01*
X368445Y366023D01*
X368632Y365951D01*
X368818Y365875D01*
X368842Y365869D01*
X368865Y365861D01*
X369061Y365822D01*
X369258Y365780D01*
X369288Y365778D01*
X369307Y365774D01*
X369362Y365774D01*
X369570Y365761D01*
X434340Y365761D01*
X434504Y365775D01*
X434668Y365782D01*
X434728Y365795D01*
X434789Y365801D01*
X434947Y365844D01*
X435108Y365880D01*
X435164Y365903D01*
X435223Y365919D01*
X435371Y365990D01*
X435523Y366053D01*
X435575Y366086D01*
X435630Y366113D01*
X435763Y366208D01*
X435901Y366298D01*
X435959Y366349D01*
X435996Y366375D01*
X436038Y366418D01*
X436136Y366504D01*
X441216Y371584D01*
X441302Y371688D01*
X441371Y371759D01*
X441386Y371781D01*
X441433Y371832D01*
X441465Y371883D01*
X441504Y371930D01*
X441586Y372073D01*
X441674Y372211D01*
X441698Y372268D01*
X441728Y372321D01*
X441783Y372476D01*
X441845Y372628D01*
X441858Y372688D01*
X441879Y372745D01*
X441905Y372907D01*
X441940Y373068D01*
X441945Y373145D01*
X441952Y373189D01*
X441951Y373250D01*
X441959Y373380D01*
X441959Y410210D01*
X441941Y410419D01*
X441925Y410628D01*
X441921Y410643D01*
X441919Y410659D01*
X441864Y410862D01*
X441812Y411064D01*
X441805Y411078D01*
X441801Y411093D01*
X441711Y411281D01*
X441623Y411473D01*
X441613Y411488D01*
X441607Y411500D01*
X441582Y411535D01*
X441451Y411734D01*
X437641Y416814D01*
X437562Y416902D01*
X437490Y416997D01*
X437412Y417069D01*
X437340Y417148D01*
X437246Y417222D01*
X437158Y417303D01*
X437069Y417360D01*
X436985Y417425D01*
X436879Y417480D01*
X436779Y417544D01*
X436680Y417585D01*
X436586Y417634D01*
X436472Y417670D01*
X436362Y417715D01*
X436258Y417738D01*
X436157Y417770D01*
X436039Y417785D01*
X435922Y417810D01*
X435773Y417819D01*
X435710Y417827D01*
X435672Y417825D01*
X435610Y417829D01*
X421422Y417829D01*
X310406Y528846D01*
X310279Y528951D01*
X310158Y529063D01*
X310107Y529095D01*
X310060Y529134D01*
X309917Y529216D01*
X309779Y529304D01*
X309722Y529328D01*
X309669Y529358D01*
X309514Y529413D01*
X309362Y529475D01*
X309302Y529488D01*
X309245Y529509D01*
X309083Y529535D01*
X308922Y529570D01*
X308845Y529575D01*
X308801Y529582D01*
X308740Y529581D01*
X308610Y529589D01*
X146050Y529589D01*
X145886Y529575D01*
X145722Y529568D01*
X145662Y529555D01*
X145602Y529549D01*
X145443Y529506D01*
X145282Y529470D01*
X145226Y529447D01*
X145167Y529431D01*
X145019Y529360D01*
X144867Y529297D01*
X144815Y529264D01*
X144761Y529237D01*
X144627Y529142D01*
X144489Y529052D01*
X144431Y529001D01*
X144394Y528975D01*
X144352Y528932D01*
X144254Y528846D01*
X111234Y495826D01*
X111129Y495699D01*
X111018Y495578D01*
X110985Y495527D01*
X110946Y495480D01*
X110864Y495337D01*
X110776Y495199D01*
X110752Y495142D01*
X110722Y495089D01*
X110667Y494934D01*
X110605Y494782D01*
X110592Y494722D01*
X110571Y494665D01*
X110545Y494503D01*
X110510Y494342D01*
X110505Y494265D01*
X110498Y494221D01*
X110499Y494160D01*
X110491Y494030D01*
X110491Y325120D01*
X110497Y325054D01*
X110496Y325046D01*
X110501Y325006D01*
X110505Y324956D01*
X110512Y324792D01*
X110525Y324732D01*
X110531Y324672D01*
X110547Y324613D01*
X110548Y324599D01*
X110570Y324528D01*
X110574Y324513D01*
X110610Y324352D01*
X110633Y324296D01*
X110649Y324237D01*
X110673Y324188D01*
X110679Y324168D01*
X110723Y324081D01*
X110783Y323937D01*
X110816Y323885D01*
X110843Y323831D01*
X110870Y323792D01*
X110883Y323767D01*
X110951Y323678D01*
X111028Y323559D01*
X111079Y323501D01*
X111105Y323464D01*
X111134Y323436D01*
X111155Y323408D01*
X111185Y323380D01*
X111234Y323324D01*
X126474Y308084D01*
X126601Y307979D01*
X126722Y307868D01*
X126773Y307835D01*
X126820Y307796D01*
X126963Y307714D01*
X127101Y307626D01*
X127158Y307602D01*
X127211Y307572D01*
X127366Y307517D01*
X127518Y307455D01*
X127578Y307442D01*
X127635Y307421D01*
X127797Y307395D01*
X127958Y307360D01*
X128035Y307355D01*
X128079Y307348D01*
X128140Y307349D01*
X128270Y307341D01*
X179070Y307341D01*
X179234Y307355D01*
G37*
G36*
X336714Y10175D02*
X336714Y10175D01*
X336878Y10182D01*
X336938Y10195D01*
X336999Y10201D01*
X337157Y10244D01*
X337318Y10280D01*
X337374Y10303D01*
X337433Y10319D01*
X337581Y10390D01*
X337733Y10453D01*
X337785Y10486D01*
X337840Y10513D01*
X337973Y10608D01*
X338111Y10698D01*
X338169Y10749D01*
X338206Y10775D01*
X338248Y10818D01*
X338346Y10904D01*
X357396Y29954D01*
X357501Y30081D01*
X357613Y30202D01*
X357645Y30253D01*
X357684Y30300D01*
X357766Y30443D01*
X357854Y30581D01*
X357878Y30638D01*
X357908Y30691D01*
X357963Y30846D01*
X358025Y30998D01*
X358038Y31058D01*
X358059Y31115D01*
X358085Y31277D01*
X358120Y31438D01*
X358125Y31515D01*
X358132Y31559D01*
X358131Y31620D01*
X358139Y31750D01*
X358139Y146050D01*
X358125Y146214D01*
X358118Y146378D01*
X358105Y146438D01*
X358099Y146499D01*
X358056Y146657D01*
X358020Y146818D01*
X357997Y146874D01*
X357981Y146933D01*
X357910Y147081D01*
X357847Y147233D01*
X357814Y147285D01*
X357787Y147340D01*
X357692Y147473D01*
X357602Y147611D01*
X357551Y147669D01*
X357525Y147706D01*
X357482Y147748D01*
X357396Y147846D01*
X319296Y185946D01*
X319169Y186051D01*
X319048Y186163D01*
X318997Y186195D01*
X318950Y186234D01*
X318807Y186316D01*
X318669Y186404D01*
X318612Y186428D01*
X318559Y186458D01*
X318404Y186513D01*
X318252Y186575D01*
X318192Y186588D01*
X318135Y186609D01*
X317973Y186635D01*
X317812Y186670D01*
X317735Y186675D01*
X317691Y186682D01*
X317630Y186681D01*
X317500Y186689D01*
X190500Y186689D01*
X190336Y186675D01*
X190172Y186668D01*
X190112Y186655D01*
X190052Y186649D01*
X189893Y186606D01*
X189732Y186570D01*
X189676Y186547D01*
X189617Y186531D01*
X189469Y186460D01*
X189317Y186397D01*
X189265Y186364D01*
X189211Y186337D01*
X189077Y186242D01*
X188939Y186152D01*
X188881Y186101D01*
X188844Y186075D01*
X188802Y186032D01*
X188704Y185946D01*
X169654Y166896D01*
X169549Y166769D01*
X169438Y166648D01*
X169405Y166597D01*
X169366Y166550D01*
X169284Y166407D01*
X169196Y166269D01*
X169172Y166212D01*
X169142Y166159D01*
X169087Y166004D01*
X169025Y165852D01*
X169012Y165792D01*
X168991Y165735D01*
X168965Y165573D01*
X168930Y165412D01*
X168925Y165335D01*
X168918Y165291D01*
X168919Y165230D01*
X168911Y165100D01*
X168911Y25400D01*
X168916Y25339D01*
X168915Y25327D01*
X168923Y25262D01*
X168925Y25236D01*
X168932Y25072D01*
X168945Y25012D01*
X168951Y24952D01*
X168966Y24897D01*
X168968Y24880D01*
X168994Y24792D01*
X169030Y24632D01*
X169053Y24576D01*
X169069Y24517D01*
X169091Y24471D01*
X169098Y24449D01*
X169145Y24357D01*
X169203Y24217D01*
X169236Y24165D01*
X169263Y24111D01*
X169289Y24074D01*
X169302Y24048D01*
X169372Y23956D01*
X169448Y23839D01*
X169499Y23781D01*
X169525Y23744D01*
X169553Y23717D01*
X169574Y23689D01*
X169605Y23661D01*
X169654Y23604D01*
X182354Y10904D01*
X182481Y10799D01*
X182602Y10688D01*
X182653Y10655D01*
X182700Y10616D01*
X182843Y10534D01*
X182981Y10446D01*
X183038Y10422D01*
X183091Y10392D01*
X183246Y10337D01*
X183398Y10275D01*
X183458Y10262D01*
X183515Y10241D01*
X183677Y10215D01*
X183838Y10180D01*
X183915Y10175D01*
X183959Y10168D01*
X184020Y10169D01*
X184150Y10161D01*
X336550Y10161D01*
X336714Y10175D01*
G37*
G36*
X698664Y10175D02*
X698664Y10175D01*
X698828Y10182D01*
X698888Y10195D01*
X698949Y10201D01*
X699107Y10244D01*
X699268Y10280D01*
X699324Y10303D01*
X699383Y10319D01*
X699531Y10390D01*
X699683Y10453D01*
X699735Y10486D01*
X699790Y10513D01*
X699923Y10608D01*
X700061Y10698D01*
X700119Y10749D01*
X700156Y10775D01*
X700198Y10818D01*
X700296Y10904D01*
X719346Y29954D01*
X719451Y30081D01*
X719563Y30202D01*
X719595Y30253D01*
X719634Y30300D01*
X719716Y30443D01*
X719804Y30581D01*
X719828Y30638D01*
X719858Y30691D01*
X719913Y30846D01*
X719975Y30998D01*
X719988Y31058D01*
X720009Y31115D01*
X720035Y31277D01*
X720070Y31438D01*
X720075Y31515D01*
X720082Y31559D01*
X720081Y31620D01*
X720089Y31750D01*
X720089Y184150D01*
X720075Y184314D01*
X720068Y184478D01*
X720055Y184538D01*
X720049Y184599D01*
X720006Y184757D01*
X719970Y184918D01*
X719947Y184974D01*
X719931Y185033D01*
X719860Y185181D01*
X719797Y185333D01*
X719764Y185385D01*
X719737Y185440D01*
X719642Y185573D01*
X719552Y185711D01*
X719501Y185769D01*
X719475Y185806D01*
X719432Y185848D01*
X719346Y185946D01*
X713739Y191552D01*
X713739Y196850D01*
X713725Y197014D01*
X713718Y197178D01*
X713705Y197238D01*
X713699Y197299D01*
X713656Y197457D01*
X713620Y197618D01*
X713597Y197674D01*
X713581Y197733D01*
X713510Y197881D01*
X713447Y198033D01*
X713414Y198085D01*
X713387Y198140D01*
X713292Y198273D01*
X713202Y198411D01*
X713151Y198469D01*
X713125Y198506D01*
X713082Y198548D01*
X712996Y198646D01*
X662939Y248702D01*
X662939Y285750D01*
X662925Y285914D01*
X662918Y286078D01*
X662905Y286138D01*
X662899Y286199D01*
X662856Y286357D01*
X662820Y286518D01*
X662797Y286574D01*
X662781Y286633D01*
X662711Y286781D01*
X662647Y286933D01*
X662614Y286985D01*
X662587Y287040D01*
X662492Y287173D01*
X662402Y287311D01*
X662351Y287369D01*
X662325Y287406D01*
X662282Y287448D01*
X662196Y287546D01*
X643146Y306596D01*
X643019Y306701D01*
X642898Y306813D01*
X642847Y306845D01*
X642800Y306884D01*
X642657Y306966D01*
X642519Y307054D01*
X642462Y307078D01*
X642409Y307108D01*
X642254Y307163D01*
X642102Y307225D01*
X642042Y307238D01*
X641985Y307259D01*
X641823Y307285D01*
X641662Y307320D01*
X641585Y307325D01*
X641541Y307332D01*
X641480Y307331D01*
X641350Y307339D01*
X539750Y307339D01*
X539586Y307325D01*
X539422Y307318D01*
X539362Y307305D01*
X539302Y307299D01*
X539143Y307256D01*
X538982Y307220D01*
X538926Y307197D01*
X538867Y307181D01*
X538719Y307110D01*
X538567Y307047D01*
X538515Y307014D01*
X538461Y306987D01*
X538327Y306892D01*
X538189Y306802D01*
X538131Y306751D01*
X538094Y306725D01*
X538052Y306682D01*
X537954Y306596D01*
X525254Y293896D01*
X525149Y293769D01*
X525038Y293648D01*
X525005Y293597D01*
X524966Y293550D01*
X524884Y293407D01*
X524796Y293269D01*
X524772Y293212D01*
X524742Y293159D01*
X524687Y293004D01*
X524625Y292852D01*
X524612Y292792D01*
X524591Y292735D01*
X524565Y292573D01*
X524530Y292412D01*
X524525Y292335D01*
X524518Y292291D01*
X524519Y292230D01*
X524511Y292100D01*
X524511Y241300D01*
X524525Y241136D01*
X524532Y240972D01*
X524545Y240912D01*
X524551Y240852D01*
X524594Y240693D01*
X524630Y240532D01*
X524653Y240476D01*
X524669Y240417D01*
X524740Y240269D01*
X524803Y240117D01*
X524836Y240065D01*
X524863Y240011D01*
X524958Y239877D01*
X525048Y239739D01*
X525099Y239681D01*
X525125Y239644D01*
X525168Y239602D01*
X525254Y239504D01*
X557004Y207754D01*
X557131Y207649D01*
X557252Y207538D01*
X557303Y207505D01*
X557350Y207466D01*
X557493Y207384D01*
X557631Y207296D01*
X557688Y207272D01*
X557741Y207242D01*
X557896Y207187D01*
X558048Y207125D01*
X558108Y207112D01*
X558165Y207091D01*
X558327Y207065D01*
X558488Y207030D01*
X558565Y207025D01*
X558609Y207018D01*
X558670Y207019D01*
X558800Y207011D01*
X608548Y207011D01*
X626111Y189448D01*
X626111Y25400D01*
X626116Y25339D01*
X626115Y25327D01*
X626123Y25262D01*
X626125Y25236D01*
X626132Y25072D01*
X626145Y25012D01*
X626151Y24952D01*
X626166Y24897D01*
X626168Y24880D01*
X626194Y24792D01*
X626230Y24632D01*
X626253Y24576D01*
X626269Y24517D01*
X626291Y24471D01*
X626298Y24449D01*
X626345Y24357D01*
X626403Y24217D01*
X626436Y24165D01*
X626463Y24111D01*
X626489Y24074D01*
X626502Y24048D01*
X626572Y23956D01*
X626648Y23839D01*
X626699Y23781D01*
X626725Y23744D01*
X626753Y23717D01*
X626774Y23689D01*
X626805Y23661D01*
X626854Y23604D01*
X639554Y10904D01*
X639681Y10799D01*
X639802Y10688D01*
X639853Y10655D01*
X639900Y10616D01*
X640043Y10534D01*
X640181Y10446D01*
X640238Y10422D01*
X640291Y10392D01*
X640446Y10337D01*
X640598Y10275D01*
X640658Y10262D01*
X640715Y10241D01*
X640877Y10215D01*
X641038Y10180D01*
X641115Y10175D01*
X641159Y10168D01*
X641220Y10169D01*
X641350Y10161D01*
X698500Y10161D01*
X698664Y10175D01*
G37*
G36*
X445934Y10175D02*
X445934Y10175D01*
X446098Y10182D01*
X446158Y10195D01*
X446218Y10201D01*
X446377Y10244D01*
X446538Y10280D01*
X446594Y10303D01*
X446653Y10319D01*
X446801Y10390D01*
X446953Y10453D01*
X447005Y10486D01*
X447059Y10513D01*
X447193Y10608D01*
X447331Y10698D01*
X447389Y10749D01*
X447426Y10775D01*
X447468Y10818D01*
X447566Y10904D01*
X462806Y26144D01*
X462890Y26245D01*
X462975Y26333D01*
X462994Y26360D01*
X463023Y26392D01*
X463055Y26443D01*
X463094Y26490D01*
X463167Y26617D01*
X463227Y26706D01*
X463237Y26729D01*
X463264Y26771D01*
X463288Y26828D01*
X463318Y26881D01*
X463372Y27032D01*
X463409Y27118D01*
X463414Y27135D01*
X463435Y27188D01*
X463448Y27248D01*
X463469Y27305D01*
X463495Y27467D01*
X463501Y27495D01*
X463516Y27555D01*
X463517Y27566D01*
X463530Y27628D01*
X463535Y27705D01*
X463542Y27749D01*
X463541Y27810D01*
X463549Y27940D01*
X463549Y194310D01*
X463535Y194474D01*
X463528Y194638D01*
X463515Y194698D01*
X463509Y194759D01*
X463466Y194917D01*
X463430Y195078D01*
X463407Y195134D01*
X463391Y195193D01*
X463320Y195341D01*
X463257Y195493D01*
X463224Y195545D01*
X463197Y195600D01*
X463102Y195733D01*
X463012Y195871D01*
X462961Y195929D01*
X462935Y195966D01*
X462892Y196008D01*
X462806Y196106D01*
X389889Y269022D01*
X389889Y303530D01*
X389875Y303694D01*
X389868Y303858D01*
X389855Y303918D01*
X389849Y303979D01*
X389806Y304137D01*
X389770Y304298D01*
X389747Y304354D01*
X389731Y304413D01*
X389660Y304561D01*
X389597Y304713D01*
X389564Y304765D01*
X389537Y304820D01*
X389442Y304953D01*
X389352Y305091D01*
X389301Y305149D01*
X389275Y305186D01*
X389232Y305228D01*
X389146Y305326D01*
X375176Y319296D01*
X375049Y319401D01*
X374928Y319513D01*
X374877Y319545D01*
X374830Y319584D01*
X374687Y319666D01*
X374549Y319754D01*
X374492Y319778D01*
X374439Y319808D01*
X374284Y319863D01*
X374132Y319925D01*
X374072Y319938D01*
X374015Y319959D01*
X373853Y319985D01*
X373692Y320020D01*
X373615Y320025D01*
X373571Y320032D01*
X373510Y320031D01*
X373380Y320039D01*
X361732Y320039D01*
X329456Y352316D01*
X329329Y352421D01*
X329208Y352533D01*
X329157Y352565D01*
X329110Y352604D01*
X328967Y352686D01*
X328829Y352774D01*
X328772Y352798D01*
X328719Y352828D01*
X328564Y352883D01*
X328412Y352945D01*
X328352Y352958D01*
X328295Y352979D01*
X328133Y353005D01*
X327972Y353040D01*
X327895Y353045D01*
X327851Y353052D01*
X327790Y353051D01*
X327660Y353059D01*
X300990Y353059D01*
X300826Y353045D01*
X300662Y353038D01*
X300602Y353025D01*
X300542Y353019D01*
X300383Y352976D01*
X300222Y352940D01*
X300166Y352917D01*
X300107Y352901D01*
X299959Y352830D01*
X299807Y352767D01*
X299755Y352734D01*
X299701Y352707D01*
X299567Y352612D01*
X299429Y352522D01*
X299371Y352471D01*
X299334Y352445D01*
X299292Y352402D01*
X299194Y352316D01*
X283954Y337076D01*
X283849Y336949D01*
X283738Y336828D01*
X283705Y336777D01*
X283666Y336730D01*
X283584Y336587D01*
X283496Y336449D01*
X283472Y336392D01*
X283442Y336339D01*
X283387Y336184D01*
X283325Y336032D01*
X283312Y335972D01*
X283291Y335915D01*
X283265Y335753D01*
X283230Y335592D01*
X283225Y335515D01*
X283218Y335471D01*
X283219Y335410D01*
X283211Y335280D01*
X283211Y306070D01*
X283225Y305906D01*
X283232Y305742D01*
X283245Y305682D01*
X283251Y305622D01*
X283294Y305463D01*
X283330Y305302D01*
X283353Y305246D01*
X283369Y305187D01*
X283440Y305039D01*
X283503Y304887D01*
X283536Y304835D01*
X283563Y304781D01*
X283658Y304647D01*
X283748Y304509D01*
X283799Y304451D01*
X283825Y304414D01*
X283868Y304372D01*
X283954Y304274D01*
X321311Y266918D01*
X321311Y238760D01*
X321325Y238596D01*
X321332Y238432D01*
X321345Y238372D01*
X321351Y238312D01*
X321394Y238153D01*
X321430Y237992D01*
X321453Y237936D01*
X321469Y237877D01*
X321540Y237729D01*
X321603Y237577D01*
X321636Y237525D01*
X321663Y237471D01*
X321758Y237337D01*
X321848Y237199D01*
X321899Y237141D01*
X321925Y237104D01*
X321968Y237062D01*
X322054Y236964D01*
X374651Y184368D01*
X374651Y20320D01*
X374655Y20269D01*
X374654Y20249D01*
X374666Y20149D01*
X374672Y19992D01*
X374685Y19932D01*
X374691Y19872D01*
X374703Y19825D01*
X374706Y19801D01*
X374737Y19699D01*
X374770Y19552D01*
X374793Y19496D01*
X374809Y19437D01*
X374828Y19397D01*
X374836Y19370D01*
X374888Y19269D01*
X374943Y19137D01*
X374976Y19085D01*
X375003Y19031D01*
X375027Y18997D01*
X375041Y18969D01*
X375114Y18873D01*
X375188Y18759D01*
X375239Y18701D01*
X375265Y18664D01*
X375292Y18638D01*
X375313Y18610D01*
X375344Y18581D01*
X375394Y18524D01*
X383014Y10904D01*
X383141Y10799D01*
X383262Y10687D01*
X383313Y10655D01*
X383360Y10616D01*
X383503Y10534D01*
X383641Y10446D01*
X383698Y10422D01*
X383751Y10392D01*
X383906Y10337D01*
X384058Y10275D01*
X384118Y10262D01*
X384175Y10241D01*
X384337Y10215D01*
X384498Y10180D01*
X384575Y10175D01*
X384619Y10168D01*
X384680Y10169D01*
X384810Y10161D01*
X445770Y10161D01*
X445934Y10175D01*
G37*
G36*
X139864Y10175D02*
X139864Y10175D01*
X140028Y10182D01*
X140088Y10195D01*
X140149Y10201D01*
X140307Y10244D01*
X140468Y10280D01*
X140524Y10303D01*
X140583Y10319D01*
X140731Y10390D01*
X140883Y10453D01*
X140935Y10486D01*
X140990Y10513D01*
X141123Y10608D01*
X141261Y10698D01*
X141319Y10749D01*
X141356Y10775D01*
X141398Y10818D01*
X141496Y10904D01*
X154196Y23604D01*
X154280Y23705D01*
X154366Y23794D01*
X154384Y23821D01*
X154413Y23852D01*
X154445Y23903D01*
X154484Y23950D01*
X154556Y24074D01*
X154618Y24167D01*
X154629Y24191D01*
X154654Y24231D01*
X154678Y24288D01*
X154708Y24341D01*
X154760Y24487D01*
X154800Y24578D01*
X154805Y24599D01*
X154825Y24648D01*
X154838Y24708D01*
X154859Y24765D01*
X154885Y24927D01*
X154887Y24934D01*
X154907Y25016D01*
X154908Y25031D01*
X154920Y25088D01*
X154925Y25165D01*
X154932Y25209D01*
X154931Y25270D01*
X154939Y25400D01*
X154939Y266700D01*
X154925Y266864D01*
X154918Y267028D01*
X154905Y267088D01*
X154899Y267149D01*
X154856Y267307D01*
X154820Y267468D01*
X154797Y267524D01*
X154781Y267583D01*
X154710Y267731D01*
X154647Y267883D01*
X154614Y267935D01*
X154587Y267990D01*
X154492Y268123D01*
X154402Y268261D01*
X154351Y268319D01*
X154325Y268356D01*
X154282Y268398D01*
X154196Y268496D01*
X147846Y274846D01*
X147719Y274951D01*
X147598Y275063D01*
X147547Y275095D01*
X147500Y275134D01*
X147357Y275216D01*
X147219Y275304D01*
X147162Y275328D01*
X147109Y275358D01*
X146954Y275413D01*
X146802Y275475D01*
X146742Y275488D01*
X146685Y275509D01*
X146523Y275535D01*
X146362Y275570D01*
X146285Y275575D01*
X146241Y275582D01*
X146180Y275581D01*
X146050Y275589D01*
X95250Y275589D01*
X95086Y275575D01*
X94922Y275568D01*
X94862Y275555D01*
X94802Y275549D01*
X94643Y275506D01*
X94482Y275470D01*
X94426Y275447D01*
X94367Y275431D01*
X94219Y275360D01*
X94067Y275297D01*
X94015Y275264D01*
X93961Y275237D01*
X93827Y275142D01*
X93689Y275052D01*
X93631Y275001D01*
X93594Y274975D01*
X93552Y274932D01*
X93454Y274846D01*
X49004Y230396D01*
X48899Y230269D01*
X48788Y230148D01*
X48755Y230097D01*
X48716Y230050D01*
X48634Y229907D01*
X48546Y229769D01*
X48522Y229712D01*
X48492Y229659D01*
X48437Y229504D01*
X48375Y229352D01*
X48362Y229292D01*
X48341Y229235D01*
X48315Y229073D01*
X48280Y228912D01*
X48275Y228835D01*
X48268Y228791D01*
X48269Y228730D01*
X48261Y228600D01*
X48261Y38100D01*
X48275Y37936D01*
X48282Y37772D01*
X48295Y37712D01*
X48301Y37652D01*
X48344Y37493D01*
X48380Y37332D01*
X48403Y37276D01*
X48419Y37217D01*
X48448Y37156D01*
X48452Y37145D01*
X48479Y37091D01*
X48490Y37069D01*
X48553Y36917D01*
X48586Y36865D01*
X48613Y36811D01*
X48645Y36765D01*
X48656Y36744D01*
X48716Y36664D01*
X48798Y36539D01*
X48849Y36481D01*
X48875Y36444D01*
X48906Y36413D01*
X48928Y36385D01*
X48956Y36359D01*
X49004Y36304D01*
X74404Y10904D01*
X74531Y10799D01*
X74652Y10688D01*
X74703Y10655D01*
X74750Y10616D01*
X74893Y10534D01*
X75031Y10446D01*
X75088Y10422D01*
X75141Y10392D01*
X75296Y10337D01*
X75448Y10275D01*
X75508Y10262D01*
X75565Y10241D01*
X75727Y10215D01*
X75888Y10180D01*
X75965Y10175D01*
X76009Y10168D01*
X76070Y10169D01*
X76200Y10161D01*
X139700Y10161D01*
X139864Y10175D01*
G37*
G36*
X838364Y10175D02*
X838364Y10175D01*
X838528Y10182D01*
X838588Y10195D01*
X838649Y10201D01*
X838807Y10244D01*
X838968Y10280D01*
X839024Y10303D01*
X839083Y10319D01*
X839231Y10390D01*
X839383Y10453D01*
X839435Y10486D01*
X839490Y10513D01*
X839623Y10608D01*
X839761Y10698D01*
X839819Y10749D01*
X839856Y10775D01*
X839898Y10818D01*
X839996Y10904D01*
X859046Y29954D01*
X859151Y30081D01*
X859263Y30202D01*
X859295Y30253D01*
X859334Y30300D01*
X859416Y30443D01*
X859504Y30581D01*
X859528Y30638D01*
X859558Y30691D01*
X859613Y30846D01*
X859675Y30998D01*
X859688Y31058D01*
X859709Y31115D01*
X859735Y31277D01*
X859770Y31438D01*
X859775Y31515D01*
X859782Y31559D01*
X859781Y31620D01*
X859789Y31750D01*
X859789Y241300D01*
X859775Y241464D01*
X859768Y241628D01*
X859755Y241688D01*
X859749Y241749D01*
X859706Y241907D01*
X859670Y242068D01*
X859647Y242124D01*
X859631Y242183D01*
X859560Y242331D01*
X859497Y242483D01*
X859464Y242535D01*
X859437Y242590D01*
X859342Y242723D01*
X859252Y242861D01*
X859201Y242919D01*
X859175Y242956D01*
X859132Y242998D01*
X859046Y243096D01*
X852696Y249446D01*
X852569Y249551D01*
X852448Y249663D01*
X852397Y249695D01*
X852350Y249734D01*
X852207Y249816D01*
X852069Y249904D01*
X852012Y249928D01*
X851959Y249958D01*
X851804Y250013D01*
X851652Y250075D01*
X851592Y250088D01*
X851535Y250109D01*
X851373Y250135D01*
X851212Y250170D01*
X851135Y250175D01*
X851091Y250182D01*
X851030Y250181D01*
X850900Y250189D01*
X781050Y250189D01*
X780886Y250175D01*
X780722Y250168D01*
X780662Y250155D01*
X780602Y250149D01*
X780443Y250106D01*
X780282Y250070D01*
X780226Y250047D01*
X780167Y250031D01*
X780019Y249960D01*
X779867Y249897D01*
X779815Y249864D01*
X779761Y249837D01*
X779627Y249742D01*
X779489Y249652D01*
X779431Y249601D01*
X779394Y249575D01*
X779352Y249532D01*
X779254Y249446D01*
X747504Y217696D01*
X747399Y217569D01*
X747288Y217448D01*
X747255Y217397D01*
X747216Y217350D01*
X747134Y217207D01*
X747046Y217069D01*
X747022Y217012D01*
X746992Y216959D01*
X746937Y216804D01*
X746875Y216652D01*
X746862Y216592D01*
X746841Y216535D01*
X746815Y216373D01*
X746780Y216212D01*
X746775Y216135D01*
X746768Y216091D01*
X746769Y216030D01*
X746761Y215900D01*
X746761Y25400D01*
X746766Y25339D01*
X746765Y25327D01*
X746773Y25262D01*
X746775Y25236D01*
X746782Y25072D01*
X746795Y25012D01*
X746801Y24952D01*
X746816Y24897D01*
X746818Y24880D01*
X746844Y24792D01*
X746880Y24632D01*
X746903Y24576D01*
X746919Y24517D01*
X746941Y24471D01*
X746948Y24449D01*
X746995Y24357D01*
X747053Y24217D01*
X747086Y24165D01*
X747113Y24111D01*
X747139Y24074D01*
X747152Y24048D01*
X747222Y23956D01*
X747298Y23839D01*
X747349Y23781D01*
X747375Y23744D01*
X747403Y23717D01*
X747424Y23689D01*
X747455Y23661D01*
X747504Y23604D01*
X760204Y10904D01*
X760331Y10799D01*
X760452Y10688D01*
X760503Y10655D01*
X760550Y10616D01*
X760693Y10534D01*
X760831Y10446D01*
X760888Y10422D01*
X760941Y10392D01*
X761096Y10337D01*
X761248Y10275D01*
X761308Y10262D01*
X761365Y10241D01*
X761527Y10215D01*
X761688Y10180D01*
X761765Y10175D01*
X761809Y10168D01*
X761870Y10169D01*
X762000Y10161D01*
X838200Y10161D01*
X838364Y10175D01*
G37*
G36*
X952664Y10175D02*
X952664Y10175D01*
X952828Y10182D01*
X952888Y10195D01*
X952949Y10201D01*
X953107Y10244D01*
X953268Y10280D01*
X953324Y10303D01*
X953383Y10319D01*
X953531Y10390D01*
X953683Y10453D01*
X953735Y10486D01*
X953790Y10513D01*
X953923Y10608D01*
X954061Y10698D01*
X954119Y10749D01*
X954156Y10775D01*
X954198Y10818D01*
X954296Y10904D01*
X973346Y29954D01*
X973451Y30081D01*
X973563Y30202D01*
X973595Y30253D01*
X973634Y30300D01*
X973716Y30443D01*
X973804Y30581D01*
X973828Y30638D01*
X973858Y30691D01*
X973913Y30846D01*
X973975Y30998D01*
X973988Y31058D01*
X974009Y31115D01*
X974035Y31277D01*
X974070Y31438D01*
X974075Y31515D01*
X974082Y31559D01*
X974081Y31620D01*
X974089Y31750D01*
X974089Y203200D01*
X974088Y203211D01*
X974088Y203213D01*
X974087Y203220D01*
X974075Y203364D01*
X974068Y203528D01*
X974055Y203588D01*
X974049Y203649D01*
X974006Y203807D01*
X973970Y203968D01*
X973947Y204024D01*
X973931Y204083D01*
X973860Y204231D01*
X973797Y204383D01*
X973764Y204435D01*
X973737Y204490D01*
X973642Y204623D01*
X973552Y204761D01*
X973501Y204819D01*
X973475Y204856D01*
X973432Y204898D01*
X973346Y204996D01*
X928896Y249446D01*
X928769Y249551D01*
X928648Y249663D01*
X928597Y249695D01*
X928550Y249734D01*
X928407Y249816D01*
X928269Y249904D01*
X928212Y249928D01*
X928159Y249958D01*
X928004Y250013D01*
X927852Y250075D01*
X927792Y250088D01*
X927735Y250109D01*
X927573Y250135D01*
X927412Y250170D01*
X927335Y250175D01*
X927291Y250182D01*
X927230Y250181D01*
X927100Y250189D01*
X882650Y250189D01*
X882486Y250175D01*
X882322Y250168D01*
X882262Y250155D01*
X882202Y250149D01*
X882043Y250106D01*
X881882Y250070D01*
X881826Y250047D01*
X881767Y250031D01*
X881619Y249960D01*
X881467Y249897D01*
X881415Y249864D01*
X881361Y249837D01*
X881227Y249742D01*
X881089Y249652D01*
X881031Y249601D01*
X880994Y249575D01*
X880952Y249532D01*
X880854Y249446D01*
X868154Y236746D01*
X868049Y236619D01*
X867938Y236498D01*
X867905Y236447D01*
X867866Y236400D01*
X867784Y236257D01*
X867696Y236119D01*
X867672Y236062D01*
X867642Y236009D01*
X867587Y235854D01*
X867525Y235702D01*
X867512Y235642D01*
X867491Y235585D01*
X867465Y235423D01*
X867430Y235262D01*
X867425Y235185D01*
X867418Y235141D01*
X867419Y235080D01*
X867411Y234950D01*
X867411Y203200D01*
X867425Y203036D01*
X867432Y202872D01*
X867445Y202812D01*
X867451Y202752D01*
X867494Y202593D01*
X867530Y202432D01*
X867553Y202376D01*
X867569Y202317D01*
X867640Y202169D01*
X867703Y202017D01*
X867736Y201965D01*
X867763Y201911D01*
X867858Y201777D01*
X867948Y201639D01*
X867999Y201581D01*
X868025Y201544D01*
X868068Y201502D01*
X868154Y201404D01*
X873761Y195798D01*
X873761Y25400D01*
X873766Y25339D01*
X873765Y25327D01*
X873773Y25262D01*
X873775Y25236D01*
X873782Y25072D01*
X873795Y25012D01*
X873801Y24952D01*
X873816Y24897D01*
X873818Y24880D01*
X873844Y24792D01*
X873880Y24632D01*
X873903Y24576D01*
X873919Y24517D01*
X873941Y24471D01*
X873948Y24449D01*
X873995Y24357D01*
X874053Y24217D01*
X874086Y24165D01*
X874113Y24111D01*
X874139Y24074D01*
X874152Y24048D01*
X874222Y23956D01*
X874298Y23839D01*
X874349Y23781D01*
X874375Y23744D01*
X874403Y23717D01*
X874424Y23689D01*
X874455Y23661D01*
X874504Y23604D01*
X887204Y10904D01*
X887331Y10799D01*
X887452Y10688D01*
X887503Y10655D01*
X887550Y10616D01*
X887693Y10534D01*
X887831Y10446D01*
X887888Y10422D01*
X887941Y10392D01*
X888096Y10337D01*
X888248Y10275D01*
X888308Y10262D01*
X888365Y10241D01*
X888527Y10215D01*
X888688Y10180D01*
X888765Y10175D01*
X888809Y10168D01*
X888870Y10169D01*
X889000Y10161D01*
X952500Y10161D01*
X952664Y10175D01*
G37*
G36*
X584364Y10175D02*
X584364Y10175D01*
X584528Y10182D01*
X584588Y10195D01*
X584649Y10201D01*
X584807Y10244D01*
X584968Y10280D01*
X585024Y10303D01*
X585083Y10319D01*
X585231Y10390D01*
X585383Y10453D01*
X585435Y10486D01*
X585490Y10513D01*
X585623Y10608D01*
X585761Y10698D01*
X585819Y10749D01*
X585856Y10775D01*
X585898Y10818D01*
X585996Y10904D01*
X611396Y36304D01*
X611480Y36406D01*
X611562Y36490D01*
X611580Y36516D01*
X611613Y36552D01*
X611645Y36603D01*
X611684Y36650D01*
X611762Y36786D01*
X611814Y36863D01*
X611822Y36881D01*
X611854Y36931D01*
X611878Y36988D01*
X611908Y37041D01*
X611963Y37196D01*
X611980Y37238D01*
X611996Y37275D01*
X611998Y37282D01*
X612025Y37348D01*
X612038Y37408D01*
X612059Y37465D01*
X612085Y37627D01*
X612120Y37788D01*
X612125Y37865D01*
X612132Y37909D01*
X612131Y37970D01*
X612139Y38100D01*
X612139Y158750D01*
X612125Y158914D01*
X612118Y159078D01*
X612105Y159138D01*
X612099Y159199D01*
X612056Y159357D01*
X612020Y159518D01*
X611997Y159574D01*
X611981Y159633D01*
X611910Y159781D01*
X611847Y159933D01*
X611814Y159985D01*
X611787Y160040D01*
X611692Y160173D01*
X611602Y160311D01*
X611551Y160369D01*
X611525Y160406D01*
X611482Y160448D01*
X611396Y160546D01*
X585996Y185946D01*
X585869Y186051D01*
X585748Y186163D01*
X585697Y186195D01*
X585650Y186234D01*
X585507Y186316D01*
X585369Y186404D01*
X585312Y186428D01*
X585259Y186458D01*
X585104Y186513D01*
X584952Y186575D01*
X584892Y186588D01*
X584835Y186609D01*
X584673Y186635D01*
X584512Y186670D01*
X584435Y186675D01*
X584391Y186682D01*
X584330Y186681D01*
X584200Y186689D01*
X501650Y186689D01*
X501486Y186675D01*
X501322Y186668D01*
X501262Y186655D01*
X501202Y186649D01*
X501043Y186606D01*
X500882Y186570D01*
X500826Y186547D01*
X500767Y186531D01*
X500619Y186460D01*
X500467Y186397D01*
X500415Y186364D01*
X500361Y186337D01*
X500227Y186242D01*
X500089Y186152D01*
X500031Y186101D01*
X499994Y186075D01*
X499952Y186032D01*
X499854Y185946D01*
X480804Y166896D01*
X480699Y166769D01*
X480588Y166648D01*
X480555Y166597D01*
X480516Y166550D01*
X480434Y166407D01*
X480346Y166269D01*
X480322Y166212D01*
X480292Y166159D01*
X480237Y166004D01*
X480175Y165852D01*
X480162Y165792D01*
X480141Y165735D01*
X480115Y165573D01*
X480080Y165412D01*
X480075Y165335D01*
X480068Y165291D01*
X480069Y165230D01*
X480061Y165100D01*
X480061Y19050D01*
X480075Y18886D01*
X480082Y18722D01*
X480095Y18662D01*
X480101Y18602D01*
X480144Y18443D01*
X480180Y18282D01*
X480203Y18226D01*
X480219Y18167D01*
X480290Y18019D01*
X480353Y17867D01*
X480386Y17815D01*
X480413Y17761D01*
X480508Y17627D01*
X480598Y17489D01*
X480649Y17431D01*
X480675Y17394D01*
X480718Y17352D01*
X480804Y17254D01*
X487154Y10904D01*
X487281Y10799D01*
X487402Y10688D01*
X487453Y10655D01*
X487500Y10616D01*
X487643Y10534D01*
X487781Y10446D01*
X487838Y10422D01*
X487891Y10392D01*
X488046Y10337D01*
X488198Y10275D01*
X488258Y10262D01*
X488315Y10241D01*
X488477Y10215D01*
X488638Y10180D01*
X488715Y10175D01*
X488759Y10168D01*
X488820Y10169D01*
X488950Y10161D01*
X584200Y10161D01*
X584364Y10175D01*
G37*
G36*
X514514Y365775D02*
X514514Y365775D01*
X514678Y365782D01*
X514738Y365795D01*
X514799Y365801D01*
X514957Y365844D01*
X515118Y365880D01*
X515174Y365903D01*
X515233Y365919D01*
X515381Y365990D01*
X515533Y366053D01*
X515585Y366086D01*
X515640Y366113D01*
X515773Y366208D01*
X515911Y366298D01*
X515969Y366349D01*
X516006Y366375D01*
X516048Y366418D01*
X516146Y366504D01*
X528102Y378461D01*
X622300Y378461D01*
X622464Y378475D01*
X622628Y378482D01*
X622688Y378495D01*
X622749Y378501D01*
X622907Y378544D01*
X623068Y378580D01*
X623124Y378603D01*
X623183Y378619D01*
X623331Y378690D01*
X623483Y378753D01*
X623535Y378786D01*
X623590Y378813D01*
X623723Y378908D01*
X623861Y378998D01*
X623919Y379049D01*
X623956Y379075D01*
X623998Y379118D01*
X624096Y379204D01*
X643146Y398254D01*
X643251Y398381D01*
X643363Y398502D01*
X643395Y398553D01*
X643434Y398600D01*
X643516Y398743D01*
X643604Y398881D01*
X643628Y398938D01*
X643658Y398991D01*
X643713Y399146D01*
X643775Y399298D01*
X643788Y399358D01*
X643809Y399415D01*
X643835Y399577D01*
X643870Y399738D01*
X643875Y399815D01*
X643882Y399859D01*
X643881Y399920D01*
X643889Y400050D01*
X643889Y438150D01*
X643875Y438314D01*
X643868Y438478D01*
X643855Y438538D01*
X643849Y438599D01*
X643806Y438757D01*
X643770Y438918D01*
X643747Y438974D01*
X643731Y439033D01*
X643660Y439181D01*
X643597Y439333D01*
X643564Y439385D01*
X643537Y439440D01*
X643442Y439573D01*
X643352Y439711D01*
X643301Y439769D01*
X643275Y439806D01*
X643232Y439848D01*
X643146Y439946D01*
X617746Y465346D01*
X617619Y465451D01*
X617498Y465563D01*
X617447Y465595D01*
X617400Y465634D01*
X617257Y465716D01*
X617119Y465804D01*
X617062Y465828D01*
X617009Y465858D01*
X616854Y465913D01*
X616702Y465975D01*
X616642Y465988D01*
X616585Y466009D01*
X616423Y466035D01*
X616262Y466070D01*
X616185Y466075D01*
X616141Y466082D01*
X616080Y466081D01*
X615950Y466089D01*
X520700Y466089D01*
X520536Y466075D01*
X520372Y466068D01*
X520312Y466055D01*
X520252Y466049D01*
X520093Y466006D01*
X519932Y465970D01*
X519876Y465947D01*
X519817Y465931D01*
X519669Y465860D01*
X519517Y465797D01*
X519465Y465764D01*
X519411Y465737D01*
X519277Y465642D01*
X519139Y465552D01*
X519081Y465501D01*
X519044Y465475D01*
X519002Y465432D01*
X518904Y465346D01*
X493504Y439946D01*
X493399Y439819D01*
X493288Y439698D01*
X493255Y439647D01*
X493216Y439600D01*
X493134Y439457D01*
X493046Y439319D01*
X493022Y439262D01*
X492992Y439209D01*
X492937Y439054D01*
X492875Y438902D01*
X492862Y438842D01*
X492841Y438785D01*
X492815Y438623D01*
X492780Y438462D01*
X492775Y438385D01*
X492768Y438341D01*
X492769Y438280D01*
X492761Y438150D01*
X492761Y420152D01*
X487898Y415289D01*
X457200Y415289D01*
X457036Y415275D01*
X456872Y415268D01*
X456812Y415255D01*
X456752Y415249D01*
X456593Y415206D01*
X456432Y415170D01*
X456376Y415147D01*
X456317Y415131D01*
X456169Y415060D01*
X456017Y414997D01*
X455965Y414964D01*
X455911Y414937D01*
X455777Y414842D01*
X455639Y414752D01*
X455581Y414701D01*
X455544Y414675D01*
X455502Y414632D01*
X455404Y414546D01*
X449054Y408196D01*
X448949Y408069D01*
X448838Y407948D01*
X448805Y407897D01*
X448766Y407850D01*
X448684Y407707D01*
X448596Y407569D01*
X448572Y407512D01*
X448542Y407459D01*
X448487Y407304D01*
X448460Y407238D01*
X448446Y407207D01*
X448445Y407201D01*
X448425Y407152D01*
X448412Y407092D01*
X448391Y407035D01*
X448365Y406873D01*
X448364Y406869D01*
X448339Y406769D01*
X448338Y406750D01*
X448330Y406712D01*
X448325Y406635D01*
X448318Y406591D01*
X448319Y406530D01*
X448311Y406400D01*
X448311Y374650D01*
X448325Y374486D01*
X448332Y374322D01*
X448345Y374262D01*
X448351Y374202D01*
X448394Y374043D01*
X448430Y373882D01*
X448453Y373826D01*
X448469Y373767D01*
X448540Y373619D01*
X448603Y373467D01*
X448636Y373415D01*
X448663Y373361D01*
X448758Y373227D01*
X448848Y373089D01*
X448899Y373031D01*
X448925Y372994D01*
X448968Y372952D01*
X449054Y372854D01*
X455404Y366504D01*
X455531Y366399D01*
X455652Y366288D01*
X455703Y366255D01*
X455750Y366216D01*
X455893Y366134D01*
X456031Y366046D01*
X456088Y366022D01*
X456141Y365992D01*
X456296Y365937D01*
X456448Y365875D01*
X456508Y365862D01*
X456565Y365841D01*
X456727Y365815D01*
X456888Y365780D01*
X456965Y365775D01*
X457009Y365768D01*
X457070Y365769D01*
X457200Y365761D01*
X514350Y365761D01*
X514514Y365775D01*
G37*
G36*
X285876Y234711D02*
X285876Y234711D01*
X286002Y234718D01*
X286048Y234731D01*
X286096Y234737D01*
X286215Y234779D01*
X286337Y234814D01*
X286379Y234838D01*
X286424Y234854D01*
X286531Y234923D01*
X286641Y234984D01*
X286687Y235024D01*
X286717Y235043D01*
X286751Y235078D01*
X286827Y235143D01*
X295717Y244033D01*
X295796Y244132D01*
X295880Y244226D01*
X295904Y244268D01*
X295934Y244306D01*
X295988Y244420D01*
X296049Y244531D01*
X296062Y244577D01*
X296083Y244621D01*
X296109Y244744D01*
X296144Y244866D01*
X296149Y244927D01*
X296156Y244962D01*
X296155Y245010D01*
X296163Y245110D01*
X296163Y267970D01*
X296149Y268096D01*
X296142Y268222D01*
X296129Y268268D01*
X296123Y268316D01*
X296081Y268435D01*
X296046Y268557D01*
X296022Y268599D01*
X296006Y268644D01*
X295937Y268751D01*
X295876Y268861D01*
X295836Y268907D01*
X295817Y268937D01*
X295782Y268971D01*
X295717Y269047D01*
X274573Y290191D01*
X274573Y343539D01*
X290191Y359157D01*
X314960Y359157D01*
X315086Y359171D01*
X315212Y359178D01*
X315258Y359191D01*
X315306Y359197D01*
X315425Y359239D01*
X315547Y359274D01*
X315589Y359298D01*
X315634Y359314D01*
X315741Y359383D01*
X315851Y359444D01*
X315897Y359484D01*
X315927Y359503D01*
X315961Y359538D01*
X316037Y359603D01*
X321117Y364683D01*
X321196Y364782D01*
X321280Y364876D01*
X321304Y364918D01*
X321334Y364956D01*
X321388Y365070D01*
X321449Y365181D01*
X321462Y365227D01*
X321483Y365271D01*
X321509Y365394D01*
X321544Y365516D01*
X321549Y365577D01*
X321556Y365612D01*
X321555Y365660D01*
X321563Y365760D01*
X321563Y388620D01*
X321546Y388769D01*
X321534Y388920D01*
X321526Y388942D01*
X321523Y388966D01*
X321473Y389108D01*
X321426Y389251D01*
X321412Y389276D01*
X321406Y389294D01*
X321380Y389334D01*
X321307Y389465D01*
X318767Y393275D01*
X318701Y393353D01*
X318643Y393437D01*
X318589Y393486D01*
X318542Y393541D01*
X318460Y393602D01*
X318384Y393670D01*
X318321Y393705D01*
X318262Y393749D01*
X318169Y393789D01*
X318079Y393839D01*
X318009Y393859D01*
X317943Y393888D01*
X317842Y393906D01*
X317744Y393934D01*
X317647Y393941D01*
X317600Y393950D01*
X317563Y393948D01*
X317500Y393953D01*
X274320Y393953D01*
X274194Y393939D01*
X274068Y393932D01*
X274022Y393919D01*
X273974Y393913D01*
X273855Y393871D01*
X273733Y393836D01*
X273691Y393812D01*
X273646Y393796D01*
X273539Y393727D01*
X273429Y393666D01*
X273383Y393626D01*
X273353Y393607D01*
X273319Y393572D01*
X273243Y393507D01*
X268163Y388427D01*
X268084Y388328D01*
X268000Y388234D01*
X267976Y388192D01*
X267946Y388154D01*
X267892Y388040D01*
X267831Y387929D01*
X267818Y387883D01*
X267797Y387839D01*
X267771Y387716D01*
X267736Y387594D01*
X267732Y387533D01*
X267724Y387498D01*
X267725Y387450D01*
X267717Y387350D01*
X267717Y371471D01*
X231333Y335087D01*
X231254Y334988D01*
X231170Y334894D01*
X231146Y334852D01*
X231116Y334814D01*
X231062Y334700D01*
X231001Y334589D01*
X230988Y334543D01*
X230967Y334499D01*
X230941Y334376D01*
X230906Y334254D01*
X230902Y334193D01*
X230894Y334158D01*
X230895Y334110D01*
X230887Y334010D01*
X230887Y246380D01*
X230901Y246254D01*
X230908Y246128D01*
X230921Y246082D01*
X230927Y246034D01*
X230969Y245915D01*
X231004Y245793D01*
X231028Y245751D01*
X231044Y245706D01*
X231113Y245599D01*
X231174Y245489D01*
X231214Y245443D01*
X231233Y245413D01*
X231268Y245379D01*
X231333Y245303D01*
X241493Y235143D01*
X241592Y235064D01*
X241686Y234980D01*
X241728Y234956D01*
X241766Y234926D01*
X241880Y234872D01*
X241991Y234811D01*
X242037Y234798D01*
X242081Y234777D01*
X242204Y234751D01*
X242326Y234716D01*
X242387Y234712D01*
X242422Y234704D01*
X242470Y234705D01*
X242570Y234697D01*
X285750Y234697D01*
X285876Y234711D01*
G37*
D10*
X425450Y474100D03*
X425450Y491100D03*
X450850Y474100D03*
X450850Y491100D03*
X844550Y309000D03*
X844550Y326000D03*
X869950Y326000D03*
X869950Y309000D03*
D11*
X277178Y254000D02*
X256223Y254000D01*
X124778Y254000D02*
X103823Y254000D01*
D12*
X609600Y421640D03*
X609600Y264160D03*
X558800Y264160D03*
X558800Y421640D03*
D10*
X385200Y307340D03*
X402200Y307340D03*
X402200Y334010D03*
X385200Y334010D03*
X42300Y266700D03*
X59300Y266700D03*
D13*
X38100Y326000D03*
X38100Y309000D03*
D10*
X262500Y635000D03*
X245500Y635000D03*
D13*
X292100Y651900D03*
X292100Y668900D03*
D10*
X696350Y266700D03*
X713350Y266700D03*
X713350Y302260D03*
X696350Y302260D03*
D14*
X203200Y646000D03*
X212700Y624000D03*
X193700Y624000D03*
D15*
X83700Y747698D03*
D16*
X83700Y722298D03*
X109100Y747698D03*
X109100Y722298D03*
X134500Y747698D03*
X134500Y722298D03*
X159900Y747698D03*
X159900Y722298D03*
X185300Y747698D03*
X185300Y722298D03*
X210700Y747698D03*
X210700Y722298D03*
X236100Y747698D03*
X236100Y722298D03*
X261500Y747698D03*
X261500Y722298D03*
X286900Y747698D03*
X286900Y722298D03*
X312300Y747698D03*
X312300Y722298D03*
X337700Y747698D03*
X337700Y722298D03*
X363100Y747698D03*
X363100Y722298D03*
X388500Y747698D03*
X388500Y722298D03*
X413900Y747698D03*
X413900Y722298D03*
X439300Y747698D03*
X439300Y722298D03*
X464700Y747698D03*
X464700Y722298D03*
X490100Y747698D03*
X490100Y722298D03*
X515500Y747698D03*
X515500Y722298D03*
X540900Y747698D03*
X540900Y722298D03*
X566300Y747698D03*
X566300Y722298D03*
D17*
X438150Y391600D03*
X438150Y446600D03*
X425450Y391600D03*
X450850Y391600D03*
X463550Y391600D03*
X425450Y446600D03*
X450850Y446600D03*
X463550Y446600D03*
X857250Y226500D03*
X857250Y281500D03*
X844550Y226500D03*
X869950Y226500D03*
X882650Y226500D03*
X844550Y281500D03*
X869950Y281500D03*
X882650Y281500D03*
D18*
X412700Y114300D03*
X330200Y114300D03*
X196800Y114300D03*
X114300Y114300D03*
X819200Y114300D03*
X901700Y114300D03*
X666700Y114300D03*
X584200Y114300D03*
D13*
X841620Y427990D03*
X824620Y427990D03*
X841620Y401320D03*
X824620Y401320D03*
X356480Y646430D03*
X339480Y646430D03*
X356480Y614680D03*
X339480Y614680D03*
D15*
X886460Y467360D03*
D16*
X861060Y467360D03*
X835660Y467360D03*
X810260Y467360D03*
D19*
X397510Y601380D03*
X422910Y653380D03*
X384810Y601380D03*
X410210Y601380D03*
X422910Y601380D03*
X410210Y653380D03*
X435610Y653380D03*
X448310Y653380D03*
X448310Y601380D03*
X473710Y653380D03*
X435610Y601380D03*
X461010Y601380D03*
X461010Y653380D03*
X473710Y601380D03*
X397510Y653380D03*
X384810Y653380D03*
D20*
X258920Y494030D03*
X176920Y494030D03*
D21*
X299720Y375330D03*
D20*
X157720Y345230D03*
D21*
X299720Y338030D03*
D22*
X246220Y375330D03*
X208720Y375330D03*
D13*
X747640Y427990D03*
X730640Y427990D03*
D10*
X964810Y433070D03*
X947810Y433070D03*
X876690Y666750D03*
X893690Y666750D03*
X852560Y518160D03*
X869560Y518160D03*
X594750Y524510D03*
X611750Y524510D03*
X592210Y617220D03*
X609210Y617220D03*
D23*
X881380Y365506D03*
X881380Y426974D03*
X894080Y365506D03*
X906780Y365506D03*
X894080Y426974D03*
X906780Y426974D03*
X919480Y365506D03*
X919480Y426974D03*
D24*
X958850Y283410D02*
X974090Y283410D01*
X974090Y308410D02*
X958850Y308410D01*
D25*
X939800Y533390D03*
X939800Y665490D03*
D26*
X737362Y756920D03*
X662178Y756920D03*
D27*
X686710Y598080D03*
X686710Y682080D03*
X664210Y682080D03*
X641710Y682080D03*
X641710Y598080D03*
X686710Y481240D03*
X686710Y565240D03*
X664210Y565240D03*
X641710Y565240D03*
X641710Y481240D03*
D24*
X38100Y562810D02*
X22860Y562810D01*
X22860Y587810D02*
X38100Y587810D01*
X38100Y668220D02*
X22860Y668220D01*
X22860Y693220D02*
X38100Y693220D01*
D13*
X458470Y546490D03*
X458470Y563490D03*
X436880Y546490D03*
X436880Y563490D03*
D28*
X35560Y449580D03*
D29*
X35560Y396240D03*
D30*
X384810Y575310D02*
X384810Y601380D01*
X384810Y575310D02*
X373380Y563880D01*
D31*
X373380Y563880D03*
X645160Y347980D03*
D32*
X623570Y590550D02*
X527050Y590550D01*
X502920Y566420D01*
D31*
X502920Y566420D03*
D32*
X402200Y334010D02*
X402200Y307340D01*
X527050Y347980D02*
X645160Y347980D01*
X513080Y334010D02*
X402200Y334010D01*
X513080Y334010D02*
X527050Y347980D01*
D31*
X623570Y590550D03*
X374650Y400050D03*
X377825Y412750D03*
X390525Y415925D03*
X400050Y409575D03*
X396875Y396875D03*
X387350Y403225D03*
X384175Y390525D03*
X396875Y384175D03*
X409575Y377825D03*
X406400Y390525D03*
X409575Y403225D03*
D32*
X114300Y254000D02*
X88900Y254000D01*
X76200Y266700D01*
D31*
X79375Y244475D03*
X98425Y222250D03*
X85725Y231775D03*
X104775Y234950D03*
X117475Y225425D03*
X130175Y234950D03*
X136525Y222250D03*
X76200Y219075D03*
X66675Y231775D03*
D32*
X59300Y266700D02*
X76200Y266700D01*
D31*
X250190Y335280D03*
X254000Y345440D03*
X260350Y336550D03*
X264160Y346710D03*
X264160Y356870D03*
X273050Y353060D03*
X274320Y363220D03*
D30*
X397510Y557530D02*
X397510Y601380D01*
X397510Y557530D02*
X379730Y539750D01*
D31*
X379730Y539750D03*
X104140Y532130D03*
D30*
X81280Y509270D01*
X63536Y491455D01*
X19050Y321310D02*
X31360Y309000D01*
X38100Y309000D01*
D32*
X42300Y282820D02*
X42300Y266700D01*
X42300Y282820D02*
X36830Y288290D01*
X36830Y307730D01*
X38100Y309000D01*
D30*
X19050Y321310D02*
X19050Y356870D01*
X35560Y373380D01*
X49530Y373380D01*
X63500Y387350D01*
X63500Y491419D01*
X63536Y491455D01*
D31*
X469900Y377825D03*
X479425Y387350D03*
X482600Y377825D03*
X495300Y377825D03*
X492125Y387350D03*
X485775Y396875D03*
X495300Y403225D03*
X508000Y406400D03*
X504825Y393700D03*
X508000Y384175D03*
D30*
X438150Y446600D02*
X438150Y504190D01*
X410210Y532130D02*
X410210Y601380D01*
X410210Y532130D02*
X438150Y504190D01*
D31*
X260350Y685800D03*
X622300Y685800D03*
D32*
X834390Y469900D02*
X835660Y467360D01*
D33*
X147454Y734744D02*
X134500Y747698D01*
X147454Y734744D02*
X147454Y710793D01*
X172447Y685800D02*
X260350Y685800D01*
X172447Y685800D02*
X147454Y710793D01*
D30*
X894080Y386080D02*
X894080Y365506D01*
X862330Y417830D02*
X862330Y422910D01*
D31*
X862330Y422910D03*
D30*
X862330Y417830D02*
X894080Y386080D01*
D32*
X901700Y586740D02*
X868680Y586740D01*
D31*
X901700Y586740D03*
D32*
X890270Y640080D02*
X876690Y653660D01*
X876690Y666750D01*
X834390Y552450D02*
X834390Y469900D01*
X834390Y552450D02*
X868680Y586740D01*
D30*
X622300Y675640D02*
X622300Y685800D01*
X622300Y675640D02*
X633730Y664210D01*
X668020Y664210D01*
X671830Y660400D01*
D31*
X671830Y660400D03*
X830580Y637540D03*
D30*
X887730Y637540D01*
X890270Y640080D01*
D31*
X890270Y640080D03*
X812800Y190500D03*
X800100Y196850D03*
X796925Y209550D03*
X803275Y219075D03*
X815975Y225425D03*
X815975Y212725D03*
X809625Y203200D03*
X822325Y200025D03*
X831850Y193675D03*
X831850Y206375D03*
X825500Y219075D03*
X844550Y203200D03*
X889000Y203200D03*
X898525Y212725D03*
X904875Y222250D03*
X917575Y228600D03*
X914400Y215900D03*
X908050Y206375D03*
X901700Y196850D03*
X917575Y196850D03*
X923925Y206375D03*
X930275Y219075D03*
X939800Y225425D03*
X939800Y212725D03*
X936625Y200025D03*
D30*
X603016Y475133D02*
X601899Y476250D01*
X603016Y475133D02*
X625957Y475133D01*
X812800Y273050D02*
X825500Y260350D01*
X850900Y260350D01*
X857250Y266700D01*
X857250Y281500D01*
X601899Y476250D02*
X501650Y476250D01*
X625957Y475133D02*
X812800Y292100D01*
X812800Y273050D01*
D31*
X501650Y476250D03*
X487680Y497840D03*
D30*
X480060Y505460D01*
X452120Y505460D01*
X422910Y534670D01*
X422910Y601380D01*
D32*
X450850Y474100D02*
X450850Y446600D01*
X208720Y375330D02*
X208720Y309050D01*
X194310Y294640D01*
X100330Y294640D01*
X82550Y312420D02*
X82550Y495300D01*
D31*
X82550Y495300D03*
X99060Y593090D03*
D32*
X151970Y646000D01*
X203200Y646000D01*
X82550Y312420D02*
X100330Y294640D01*
X220750Y615950D02*
X212700Y624000D01*
X220750Y615950D02*
X254000Y615950D01*
X262500Y624450D02*
X262500Y635000D01*
X262500Y624450D02*
X254000Y615950D01*
X262500Y635000D02*
X279400Y651900D01*
X292100Y651900D01*
D33*
X292100Y668900D02*
X292100Y693147D01*
X439300Y747698D02*
X439121Y757858D01*
X289873Y772082D02*
X274454Y756663D01*
X274454Y710793D02*
X292100Y693147D01*
X274454Y710793D02*
X274454Y756663D01*
X289873Y772082D02*
X424897Y772082D01*
X439121Y757858D01*
D30*
X461216Y658254D02*
X461010Y653380D01*
X461216Y658254D02*
X461216Y680797D01*
X437925Y704088D01*
X381310Y704088D02*
X363100Y722298D01*
X381310Y704088D02*
X437925Y704088D01*
D31*
X234950Y666750D03*
D33*
X122054Y734744D02*
X109100Y747698D01*
X122054Y734744D02*
X122054Y708253D01*
X163557Y666750D02*
X234950Y666750D01*
X163557Y666750D02*
X122054Y708253D01*
D30*
X816864Y365506D02*
X881380Y365506D01*
X816864Y365506D02*
X789940Y392430D01*
X789940Y447040D01*
X810260Y467360D01*
D32*
X810260Y637540D02*
X833120Y660400D01*
D31*
X833120Y660400D03*
D32*
X810260Y633730D02*
X810260Y467360D01*
X810260Y633730D02*
X810260Y637540D01*
D31*
X789940Y648970D03*
D30*
X795020Y648970D01*
X810260Y633730D01*
X696350Y302260D02*
X696350Y266700D01*
X696350Y302260D02*
X696840Y376310D01*
X666750Y406400D01*
D31*
X666750Y406400D03*
D30*
X622300Y552450D02*
X488950Y552450D01*
X473710Y567690D01*
X473710Y601380D01*
D31*
X622300Y552450D03*
D32*
X869950Y309000D02*
X869950Y281500D01*
D33*
X430530Y695960D02*
X337270Y695960D01*
X430530Y695960D02*
X448310Y676910D01*
X448310Y653380D01*
X337270Y695960D02*
X324746Y708484D01*
X312300Y743709D02*
X312300Y747698D01*
X324746Y731263D02*
X324746Y708484D01*
X324746Y731263D02*
X312300Y743709D01*
X435610Y670814D02*
X435610Y653380D01*
X305875Y762684D02*
X299854Y756663D01*
X305875Y762684D02*
X321265Y762684D01*
X321545Y685292D02*
X421132Y685292D01*
X321545Y685292D02*
X299854Y706983D01*
X299854Y756663D01*
X321265Y762684D02*
X329901Y747698D01*
X337700Y747698D01*
X421132Y685292D02*
X435610Y670814D01*
D31*
X469900Y698500D03*
D30*
X495300Y673100D01*
X495300Y641350D01*
X482600Y628650D01*
X431800Y628650D01*
X422910Y637540D01*
X422910Y653380D01*
D32*
X844550Y309000D02*
X844550Y281500D01*
D30*
X425450Y446600D02*
X425450Y474100D01*
D32*
X356480Y614680D02*
X356480Y646430D01*
X363430Y653380D01*
X384810Y653380D01*
X397510Y653380D01*
X109100Y722298D02*
X83700Y722298D01*
X404740Y474100D02*
X425450Y474100D01*
X356480Y522360D02*
X356480Y614680D01*
X377190Y501650D02*
X404740Y474100D01*
X377190Y501650D02*
X356480Y522360D01*
X83700Y722298D02*
X60960Y699558D01*
X60960Y576580D01*
X77470Y560070D01*
X838130Y315420D02*
X844550Y309000D01*
X838130Y315420D02*
X837446Y315420D01*
X772160Y380706D01*
X772160Y480060D01*
D31*
X377190Y501650D03*
D30*
X436880Y546490D02*
X453390Y529980D01*
X453390Y520700D01*
D31*
X453390Y520700D03*
D30*
X453390Y529980D02*
X458470Y535060D01*
X458470Y546490D01*
D31*
X731520Y514350D03*
D32*
X737870Y514350D01*
X772160Y480060D01*
X594750Y524510D02*
X579120Y524510D01*
X565150Y538480D01*
D31*
X565150Y538480D03*
D32*
X571500Y617220D02*
X592210Y617220D01*
D31*
X571500Y617220D03*
D32*
X731520Y654050D02*
X731520Y514350D01*
X731520Y654050D02*
X759460Y681990D01*
X759460Y734822D01*
X737362Y756920D01*
X212090Y560070D02*
X77470Y560070D01*
X212090Y560070D02*
X218440Y553720D01*
D31*
X218440Y553720D03*
D32*
X841620Y427990D02*
X841620Y401320D01*
X861060Y467360D02*
X852678Y475742D01*
X83700Y747698D02*
X83700Y765690D01*
X101600Y783590D01*
X841620Y427990D02*
X844355Y430725D01*
X861060Y447430D01*
X861060Y467360D01*
X852678Y475742D02*
X852678Y494030D01*
X852678Y518042D01*
X852560Y518160D01*
D31*
X861060Y688340D03*
D32*
X886460Y688340D01*
X894080Y680720D01*
X894080Y667140D01*
X893690Y666750D01*
D31*
X942340Y492760D03*
D32*
X853948Y492760D01*
X852678Y494030D01*
X964810Y433070D02*
X982980Y433070D01*
D31*
X982980Y433070D03*
D32*
X861060Y688340D02*
X861060Y708660D01*
X786130Y783590D02*
X101600Y783590D01*
X786130Y783590D02*
X861060Y708660D01*
X881380Y443620D02*
X881380Y426974D01*
X881380Y443620D02*
X880940Y444060D01*
D31*
X880940Y444060D03*
D32*
X730640Y436000D02*
X730640Y427990D01*
X730640Y436000D02*
X736600Y441960D01*
X755650Y441960D01*
D31*
X755650Y441960D03*
X803910Y441960D03*
D32*
X833120Y441960D01*
X844355Y430725D01*
D30*
X852560Y518160D02*
X852560Y546490D01*
X872490Y566420D01*
X906780Y566420D01*
X911860Y571500D01*
D31*
X911860Y571500D03*
X911860Y661670D03*
D30*
X906390Y667140D01*
X894080Y667140D01*
D32*
X919480Y426974D02*
X929894Y426974D01*
X935990Y433070D02*
X947810Y433070D01*
X935990Y433070D02*
X929894Y426974D01*
X947810Y433070D02*
X947810Y395360D01*
X941070Y388620D01*
D31*
X941070Y388620D03*
X914400Y453390D03*
D32*
X906780Y445770D01*
X906780Y426974D01*
X869560Y518160D02*
X869560Y538870D01*
X868680Y539750D01*
D31*
X868680Y539750D03*
X518160Y640080D03*
D32*
X518160Y719638D01*
X515500Y722298D01*
D33*
X502920Y735118D02*
X515500Y747698D01*
X502920Y735118D02*
X502920Y609600D01*
D31*
X502920Y609600D03*
X304800Y609600D03*
D33*
X237490Y542290D01*
X96520Y496570D02*
X96520Y331470D01*
D31*
X96520Y331470D03*
D33*
X142240Y542290D02*
X237490Y542290D01*
X142240Y542290D02*
X96520Y496570D01*
D32*
X246220Y403700D02*
X246220Y375330D01*
X246220Y403700D02*
X264160Y421640D01*
X316230Y421640D01*
X334010Y403860D01*
X334010Y377190D01*
X358140Y353060D01*
X477520Y353060D01*
D31*
X477520Y353060D03*
D32*
X713350Y302260D02*
X734060Y302260D01*
X770890Y265430D02*
X795020Y265430D01*
D31*
X795020Y265430D03*
X906780Y265430D03*
D32*
X949760Y308410D01*
X966470Y308410D01*
X763905Y272415D02*
X734060Y302260D01*
X763905Y272415D02*
X770890Y265430D01*
X763905Y272415D02*
X694690Y203200D01*
X655320Y203200D01*
X655320Y218440D01*
X609600Y264160D01*
D30*
X210700Y708780D02*
X210700Y722298D01*
X210700Y708780D02*
X218440Y701040D01*
X265430Y701040D01*
X278130Y688340D01*
X278130Y681990D01*
X271780Y675640D01*
D31*
X271780Y675640D03*
X313690Y675612D03*
D30*
X308610Y670532D01*
X308610Y624840D02*
X323850Y609600D01*
X323850Y535940D01*
X400050Y459740D01*
X400050Y461010D01*
D31*
X400050Y461010D03*
X476250Y467360D03*
D30*
X499110Y490220D01*
X612140Y490220D01*
X623570Y501650D01*
X665480Y488950D02*
X665480Y466090D01*
X742950Y388620D01*
X754380Y388620D01*
X755650Y388620D01*
D31*
X754380Y388620D03*
X887730Y408940D03*
D30*
X894080Y415290D01*
X894080Y426974D01*
X308610Y624840D02*
X308610Y670532D01*
X623570Y501650D02*
X652780Y501650D01*
X665480Y488950D01*
D32*
X664210Y524510D02*
X611750Y524510D01*
X686710Y547010D02*
X686710Y565240D01*
X686710Y547010D02*
X664210Y524510D01*
X686710Y502010D02*
X686710Y481240D01*
X686710Y502010D02*
X664210Y524510D01*
X540900Y617340D02*
X540900Y722298D01*
X540900Y617340D02*
X547370Y610870D01*
D31*
X547370Y610870D03*
X530860Y538480D03*
D32*
X566420Y502920D01*
X605790Y502920D02*
X612140Y509270D01*
X611750Y509660D01*
X611750Y524510D01*
X605790Y502920D02*
X566420Y502920D01*
X686710Y598080D02*
X686710Y633730D01*
X686710Y682080D01*
X625720Y633730D02*
X609210Y617220D01*
X625720Y633730D02*
X686710Y633730D01*
X667082Y722298D02*
X566300Y722298D01*
X686710Y702670D02*
X686710Y682080D01*
X686710Y702670D02*
X667082Y722298D01*
D31*
X890270Y337820D03*
D32*
X906780Y354330D01*
X906780Y365506D01*
D31*
X814070Y383540D03*
D32*
X853440Y383540D01*
X858520Y378460D01*
D31*
X858520Y378460D03*
X833120Y613410D03*
D32*
X887720Y613410D01*
X939800Y665490D01*
X939800Y533390D01*
X730250Y266700D02*
X713350Y266700D01*
D31*
X730250Y266700D03*
D32*
X844550Y326000D02*
X844550Y349250D01*
D31*
X844550Y349250D03*
D32*
X844550Y326000D02*
X869950Y326000D01*
X882650Y292100D02*
X882650Y281500D01*
X882650Y292100D02*
X889000Y298450D01*
X889000Y317500D01*
X339480Y614680D02*
X339480Y633730D01*
X339480Y646430D01*
X339480Y633730D02*
X322580Y633730D01*
D31*
X322580Y633730D03*
D32*
X193700Y624000D02*
X193675Y606425D01*
D31*
X193675Y606425D03*
D32*
X231775Y635000D02*
X245500Y635000D01*
D31*
X231775Y635000D03*
D32*
X38100Y346075D02*
X38100Y326000D01*
D31*
X38100Y346075D03*
D32*
X473710Y653380D02*
X481930Y653380D01*
X482600Y654050D01*
D31*
X482600Y654050D03*
D32*
X807720Y401320D02*
X824620Y401320D01*
D31*
X807720Y401320D03*
D32*
X824620Y401320D02*
X824620Y427990D01*
X869950Y326000D02*
X880500Y326000D01*
X889000Y317500D01*
D33*
X473665Y734744D02*
X455735Y734744D01*
D30*
X444559Y722298D02*
X439300Y722298D01*
X486111Y722298D02*
X490100Y722298D01*
D33*
X455735Y734744D02*
X444559Y722298D01*
X473665Y734744D02*
X486111Y722298D01*
D32*
X385200Y334010D02*
X372110Y334010D01*
D31*
X372110Y334010D03*
D32*
X919480Y347980D02*
X919480Y365506D01*
X919480Y347980D02*
X904240Y332740D01*
X889000Y317500D01*
X747640Y413140D02*
X747640Y427990D01*
X747640Y413140D02*
X750570Y410210D01*
D31*
X750570Y410210D03*
D32*
X30480Y546100D02*
X30480Y562810D01*
X30480Y546100D02*
X44450Y532130D01*
X72390Y532130D01*
X87630Y547370D02*
X132080Y547370D01*
D31*
X132080Y547370D03*
D32*
X87630Y547370D02*
X72390Y532130D01*
X134500Y710050D02*
X134500Y722298D01*
X134500Y710050D02*
X166370Y678180D01*
D31*
X166370Y678180D03*
D33*
X408667Y735330D02*
X408745Y735252D01*
X408667Y735330D02*
X400050Y735330D01*
X426346Y735252D02*
X439300Y722298D01*
X426346Y735252D02*
X408745Y735252D01*
X400050Y735330D02*
X388500Y746880D01*
X388500Y747698D01*
D30*
X461010Y601380D02*
X461010Y580390D01*
X462280Y579120D01*
D31*
X462280Y579120D03*
D30*
X457200Y704398D02*
X439300Y722298D01*
X457200Y704398D02*
X457200Y697230D01*
X481930Y672500D02*
X481930Y653380D01*
X481930Y672500D02*
X457200Y697230D01*
X641710Y692510D02*
X641710Y682080D01*
X641710Y692510D02*
X652780Y703580D01*
D31*
X652780Y703580D03*
D30*
X664210Y692150D02*
X664210Y682080D01*
X664210Y692150D02*
X652780Y703580D01*
X787400Y628650D02*
X787400Y556260D01*
D31*
X787400Y556260D03*
X787400Y628650D03*
D30*
X641710Y481240D02*
X630010Y481240D01*
X623570Y487680D01*
D31*
X623570Y487680D03*
D30*
X641710Y565240D02*
X642755Y566285D01*
X665480Y589010D01*
X665480Y619760D01*
D31*
X665480Y619760D03*
D34*
X708660Y621030D02*
X708660Y683260D01*
D31*
X708660Y683260D03*
X708660Y621030D03*
D30*
X463550Y478400D02*
X463550Y446600D01*
X463550Y478400D02*
X459545Y482405D01*
X450850Y491100D01*
X459545Y482405D02*
X467360Y490220D01*
D31*
X467360Y490220D03*
D30*
X425450Y491100D02*
X416170Y500380D01*
X410210Y500380D01*
D31*
X410210Y500380D03*
D30*
X26670Y381000D02*
X16510Y370840D01*
D31*
X16510Y370840D03*
D30*
X641710Y567330D02*
X641710Y598080D01*
X641710Y567330D02*
X642755Y566285D01*
X641710Y565240D02*
X664210Y565240D01*
D31*
X918210Y318742D03*
D30*
X904240Y332712D01*
X904240Y332740D01*
X410210Y628650D02*
X410210Y653380D01*
D31*
X410210Y628650D03*
D30*
X54610Y472440D02*
X34290Y492760D01*
D31*
X34290Y492760D03*
D30*
X26670Y381000D02*
X44450Y381000D01*
X54610Y391160D01*
X54610Y426720D01*
X54610Y472440D01*
X54610Y426720D02*
X46990Y426720D01*
X44450Y424180D01*
D31*
X44450Y424180D03*
D30*
X435610Y564760D02*
X436880Y563490D01*
X435610Y564760D02*
X435610Y579120D01*
X435610Y601380D01*
D31*
X83820Y660400D03*
D32*
X77470Y654050D01*
X77470Y586740D02*
X90170Y574040D01*
X238760Y574040D01*
X257810Y593090D01*
D31*
X257810Y593090D03*
X435610Y579120D03*
D32*
X77470Y586740D02*
X77470Y654050D01*
D30*
X458470Y570230D02*
X458470Y563490D01*
X458470Y570230D02*
X448310Y580390D01*
X448310Y601380D01*
D31*
X499110Y535940D03*
D30*
X491490Y535940D01*
X463940Y563490D02*
X458470Y563490D01*
X463940Y563490D02*
X491490Y535940D01*
M02*
