M48
;GenerationSoftware,Autodesk,EAGLE,8.6.0*%
;CreationDate,2018-02-22T08:32:46Z*%
FMAT,2
ICI,OFF
METRIC,TZ,000.000
T13C0.350
T12C1.000
T11C1.016
T10C1.321
T9C1.397
T8C1.500
T7C1.700
T6C1.850
T5C2.032
T4C2.200
T3C2.700
T2C3.000
%
G90
M71
T2
X46863Y26924
X96139Y36322
X90805Y75819
T3
X25892Y49403
X17692Y49403
X15772Y34523
T4
X29972Y37533
X29972Y33803
T5
X96583Y46736
X96583Y70549
X73089Y70549
X73089Y46736
T6
X93980Y66549
X93980Y53339
T7
X20872Y37533
X24622Y37533
T8
X11430Y11430
X60960Y42164
X60960Y26416
X55880Y26416
X55880Y42164
X41270Y11430
X33020Y11430
X19680Y11430
X81920Y11430
X90170Y11430
X58420Y11430
X66670Y11430
T9
X11430Y25400
X26670Y25400
T10
X66218Y75692
X73736Y75692
T11
X3048Y66822
X3048Y69322
X3048Y58781
X3048Y56281
X96647Y28341
X81026Y46736
X83566Y46736
X86106Y46736
X88646Y46736
X96647Y30841
T12
X23610Y72230
X23610Y74770
X21070Y72230
X21070Y74770
X18530Y72230
X18530Y74770
X15990Y72230
X15990Y74770
X13450Y72230
X13450Y74770
X10910Y72230
X10910Y74770
X8370Y72230
X8370Y74770
X3556Y39624
X26150Y72230
X26150Y74770
X3556Y44958
X56630Y72230
X56630Y74770
X54090Y72230
X54090Y74770
X51550Y72230
X51550Y74770
X49010Y72230
X49010Y74770
X46470Y72230
X46470Y74770
X43930Y72230
X41390Y72230
X43930Y74770
X28690Y74770
X28690Y72230
X31230Y74770
X31230Y72230
X33770Y74770
X33770Y72230
X36310Y74770
X36310Y72230
X38850Y74770
X38850Y72230
X41390Y74770
T13
X78740Y55626
X65278Y70358
X46228Y57912
X16637Y67818
X13208Y54737
X75057Y41021
X37211Y33401
X80772Y40132
X48260Y65405
X3810Y34608
X23177Y63500
X19368Y60642
X32258Y63373
X84455Y34925
X73025Y26670
X83312Y61341
X85852Y37846
X91821Y31874
X81407Y38354
X49911Y53594
X43561Y57912
X25781Y59309
X8382Y66040
X4445Y42418
X3429Y49276
X41021Y62865
X78740Y62865
X1651Y37084
X41021Y50038
X46736Y49022
X70866Y62103
X70866Y68326
X66548Y61976
X62357Y48768
X62230Y68580
X27432Y36322
X37973Y53975
X10414Y53213
X46990Y37783
X47942Y38735
X48260Y37783
X49530Y37783
X49212Y38735
X48577Y39688
X49530Y40323
X50800Y40640
X50482Y39370
X50800Y38418
X26035Y68580
X27305Y35306
X86233Y42291
X90170Y58674
X67183Y66040
X83058Y63754
X89027Y64008
X81280Y19050
X80010Y19685
X79693Y20955
X80328Y21907
X81598Y22542
X81598Y21273
X80963Y20320
X82233Y20003
X83185Y19368
X7937Y24447
X64516Y34798
X50292Y56642
X62357Y59055
X37465Y40005
X37783Y41275
X39053Y41593
X40005Y40958
X39688Y39688
X38735Y40323
X38418Y39053
X39688Y38418
X40958Y37783
X40640Y39053
X40958Y40323
X83185Y20638
X9843Y22225
X8573Y23177
X10478Y23495
X11747Y22542
X13017Y23495
X13652Y22225
X7620Y21907
X6667Y23177
X25019Y33528
X25400Y34544
X26035Y33655
X26416Y34671
X26416Y35687
X50292Y60960
X57150Y61722
X21844Y55372
X86106Y68834
X94234Y49276
X98298Y43307
X88094Y44406
X75565Y44196
X80391Y44196
X91186Y57150
X91186Y66167
X94107Y38862
X91440Y45339
X86868Y53975
X51816Y64008
X56515Y53848
X30480Y60960
X9652Y33147
X47752Y35306
X79502Y26543
X90678Y26543
X27178Y67564
X31369Y67561
X40005Y46101
X47625Y46736
X75438Y38862
X88773Y40894
X54737Y61087
X53086Y53848
X89027Y33782
X93662Y20003
X82550Y21907
X84455Y20320
X88900Y20320
X89852Y21273
X90487Y22225
X91757Y22860
X91440Y21590
X90805Y20638
X90170Y19685
X91757Y19685
X92392Y20638
X93027Y21907
X93980Y22542
X93980Y21273
X37338Y56388
X50165Y47625
X48768Y49784
X8255Y49530
X9906Y59309
X23495Y66675
X83312Y66040
X78994Y64897
X66675Y40640
X62230Y55245
X46990Y69850
X37719Y50165
X45339Y52070
X73152Y51435
M30