G04 EAGLE Gerber X2 export*
%TF.Part,Single*%
%TF.FileFunction,Profile,NP*%
%TF.FilePolarity,Positive*%
%TF.GenerationSoftware,Autodesk,EAGLE,8.6.0*%
%TF.CreationDate,2018-02-22T08:32:46Z*%
G75*
%MOMM*%
%FSLAX34Y34*%
%LPD*%
%AMOC8*
5,1,8,0,0,1.08239X$1,22.5*%
G01*
%ADD10C,0.254000*%


D10*
X0Y0D02*
X1000000Y0D01*
X1000000Y800000D01*
X0Y800000D01*
X0Y0D01*
X923050Y757654D02*
X922974Y756586D01*
X922821Y755525D01*
X922593Y754478D01*
X922291Y753450D01*
X921917Y752446D01*
X921472Y751471D01*
X920958Y750531D01*
X920379Y749630D01*
X919737Y748772D01*
X919035Y747962D01*
X918278Y747205D01*
X917468Y746503D01*
X916610Y745861D01*
X915709Y745282D01*
X914769Y744768D01*
X913794Y744323D01*
X912790Y743949D01*
X911762Y743647D01*
X910715Y743419D01*
X909654Y743266D01*
X908586Y743190D01*
X907514Y743190D01*
X906446Y743266D01*
X905385Y743419D01*
X904338Y743647D01*
X903310Y743949D01*
X902306Y744323D01*
X901331Y744768D01*
X900391Y745282D01*
X899490Y745861D01*
X898632Y746503D01*
X897822Y747205D01*
X897065Y747962D01*
X896363Y748772D01*
X895721Y749630D01*
X895142Y750531D01*
X894628Y751471D01*
X894183Y752446D01*
X893809Y753450D01*
X893507Y754478D01*
X893279Y755525D01*
X893126Y756586D01*
X893050Y757654D01*
X893050Y758726D01*
X893126Y759794D01*
X893279Y760855D01*
X893507Y761902D01*
X893809Y762930D01*
X894183Y763934D01*
X894628Y764909D01*
X895142Y765849D01*
X895721Y766750D01*
X896363Y767608D01*
X897065Y768418D01*
X897822Y769175D01*
X898632Y769877D01*
X899490Y770519D01*
X900391Y771098D01*
X901331Y771612D01*
X902306Y772057D01*
X903310Y772431D01*
X904338Y772733D01*
X905385Y772961D01*
X906446Y773114D01*
X907514Y773190D01*
X908586Y773190D01*
X909654Y773114D01*
X910715Y772961D01*
X911762Y772733D01*
X912790Y772431D01*
X913794Y772057D01*
X914769Y771612D01*
X915709Y771098D01*
X916610Y770519D01*
X917468Y769877D01*
X918278Y769175D01*
X919035Y768418D01*
X919737Y767608D01*
X920379Y766750D01*
X920958Y765849D01*
X921472Y764909D01*
X921917Y763934D01*
X922291Y762930D01*
X922593Y761902D01*
X922821Y760855D01*
X922974Y759794D01*
X923050Y758726D01*
X923050Y757654D01*
X976390Y362684D02*
X976314Y361616D01*
X976161Y360555D01*
X975933Y359508D01*
X975631Y358480D01*
X975257Y357476D01*
X974812Y356501D01*
X974298Y355561D01*
X973719Y354660D01*
X973077Y353802D01*
X972375Y352992D01*
X971618Y352235D01*
X970808Y351533D01*
X969950Y350891D01*
X969049Y350312D01*
X968109Y349798D01*
X967134Y349353D01*
X966130Y348979D01*
X965102Y348677D01*
X964055Y348449D01*
X962994Y348296D01*
X961926Y348220D01*
X960854Y348220D01*
X959786Y348296D01*
X958725Y348449D01*
X957678Y348677D01*
X956650Y348979D01*
X955646Y349353D01*
X954671Y349798D01*
X953731Y350312D01*
X952830Y350891D01*
X951972Y351533D01*
X951162Y352235D01*
X950405Y352992D01*
X949703Y353802D01*
X949061Y354660D01*
X948482Y355561D01*
X947968Y356501D01*
X947523Y357476D01*
X947149Y358480D01*
X946847Y359508D01*
X946619Y360555D01*
X946466Y361616D01*
X946390Y362684D01*
X946390Y363756D01*
X946466Y364824D01*
X946619Y365885D01*
X946847Y366932D01*
X947149Y367960D01*
X947523Y368964D01*
X947968Y369939D01*
X948482Y370879D01*
X949061Y371780D01*
X949703Y372638D01*
X950405Y373448D01*
X951162Y374205D01*
X951972Y374907D01*
X952830Y375549D01*
X953731Y376128D01*
X954671Y376642D01*
X955646Y377087D01*
X956650Y377461D01*
X957678Y377763D01*
X958725Y377991D01*
X959786Y378144D01*
X960854Y378220D01*
X961926Y378220D01*
X962994Y378144D01*
X964055Y377991D01*
X965102Y377763D01*
X966130Y377461D01*
X967134Y377087D01*
X968109Y376642D01*
X969049Y376128D01*
X969950Y375549D01*
X970808Y374907D01*
X971618Y374205D01*
X972375Y373448D01*
X973077Y372638D01*
X973719Y371780D01*
X974298Y370879D01*
X974812Y369939D01*
X975257Y368964D01*
X975631Y367960D01*
X975933Y366932D01*
X976161Y365885D01*
X976314Y364824D01*
X976390Y363756D01*
X976390Y362684D01*
X483630Y268704D02*
X483554Y267636D01*
X483401Y266575D01*
X483173Y265528D01*
X482871Y264500D01*
X482497Y263496D01*
X482052Y262521D01*
X481538Y261581D01*
X480959Y260680D01*
X480317Y259822D01*
X479615Y259012D01*
X478858Y258255D01*
X478048Y257553D01*
X477190Y256911D01*
X476289Y256332D01*
X475349Y255818D01*
X474374Y255373D01*
X473370Y254999D01*
X472342Y254697D01*
X471295Y254469D01*
X470234Y254316D01*
X469166Y254240D01*
X468094Y254240D01*
X467026Y254316D01*
X465965Y254469D01*
X464918Y254697D01*
X463890Y254999D01*
X462886Y255373D01*
X461911Y255818D01*
X460971Y256332D01*
X460070Y256911D01*
X459212Y257553D01*
X458402Y258255D01*
X457645Y259012D01*
X456943Y259822D01*
X456301Y260680D01*
X455722Y261581D01*
X455208Y262521D01*
X454763Y263496D01*
X454389Y264500D01*
X454087Y265528D01*
X453859Y266575D01*
X453706Y267636D01*
X453630Y268704D01*
X453630Y269776D01*
X453706Y270844D01*
X453859Y271905D01*
X454087Y272952D01*
X454389Y273980D01*
X454763Y274984D01*
X455208Y275959D01*
X455722Y276899D01*
X456301Y277800D01*
X456943Y278658D01*
X457645Y279468D01*
X458402Y280225D01*
X459212Y280927D01*
X460070Y281569D01*
X460971Y282148D01*
X461911Y282662D01*
X462886Y283107D01*
X463890Y283481D01*
X464918Y283783D01*
X465965Y284011D01*
X467026Y284164D01*
X468094Y284240D01*
X469166Y284240D01*
X470234Y284164D01*
X471295Y284011D01*
X472342Y283783D01*
X473370Y283481D01*
X474374Y283107D01*
X475349Y282662D01*
X476289Y282148D01*
X477190Y281569D01*
X478048Y280927D01*
X478858Y280225D01*
X479615Y279468D01*
X480317Y278658D01*
X480959Y277800D01*
X481538Y276899D01*
X482052Y275959D01*
X482497Y274984D01*
X482871Y273980D01*
X483173Y272952D01*
X483401Y271905D01*
X483554Y270844D01*
X483630Y269776D01*
X483630Y268704D01*
X923050Y757654D02*
X922974Y756586D01*
X922821Y755525D01*
X922593Y754478D01*
X922291Y753450D01*
X921917Y752446D01*
X921472Y751471D01*
X920958Y750531D01*
X920379Y749630D01*
X919737Y748772D01*
X919035Y747962D01*
X918278Y747205D01*
X917468Y746503D01*
X916610Y745861D01*
X915709Y745282D01*
X914769Y744768D01*
X913794Y744323D01*
X912790Y743949D01*
X911762Y743647D01*
X910715Y743419D01*
X909654Y743266D01*
X908586Y743190D01*
X907514Y743190D01*
X906446Y743266D01*
X905385Y743419D01*
X904338Y743647D01*
X903310Y743949D01*
X902306Y744323D01*
X901331Y744768D01*
X900391Y745282D01*
X899490Y745861D01*
X898632Y746503D01*
X897822Y747205D01*
X897065Y747962D01*
X896363Y748772D01*
X895721Y749630D01*
X895142Y750531D01*
X894628Y751471D01*
X894183Y752446D01*
X893809Y753450D01*
X893507Y754478D01*
X893279Y755525D01*
X893126Y756586D01*
X893050Y757654D01*
X893050Y758726D01*
X893126Y759794D01*
X893279Y760855D01*
X893507Y761902D01*
X893809Y762930D01*
X894183Y763934D01*
X894628Y764909D01*
X895142Y765849D01*
X895721Y766750D01*
X896363Y767608D01*
X897065Y768418D01*
X897822Y769175D01*
X898632Y769877D01*
X899490Y770519D01*
X900391Y771098D01*
X901331Y771612D01*
X902306Y772057D01*
X903310Y772431D01*
X904338Y772733D01*
X905385Y772961D01*
X906446Y773114D01*
X907514Y773190D01*
X908586Y773190D01*
X909654Y773114D01*
X910715Y772961D01*
X911762Y772733D01*
X912790Y772431D01*
X913794Y772057D01*
X914769Y771612D01*
X915709Y771098D01*
X916610Y770519D01*
X917468Y769877D01*
X918278Y769175D01*
X919035Y768418D01*
X919737Y767608D01*
X920379Y766750D01*
X920958Y765849D01*
X921472Y764909D01*
X921917Y763934D01*
X922291Y762930D01*
X922593Y761902D01*
X922821Y760855D01*
X922974Y759794D01*
X923050Y758726D01*
X923050Y757654D01*
X976390Y362684D02*
X976314Y361616D01*
X976161Y360555D01*
X975933Y359508D01*
X975631Y358480D01*
X975257Y357476D01*
X974812Y356501D01*
X974298Y355561D01*
X973719Y354660D01*
X973077Y353802D01*
X972375Y352992D01*
X971618Y352235D01*
X970808Y351533D01*
X969950Y350891D01*
X969049Y350312D01*
X968109Y349798D01*
X967134Y349353D01*
X966130Y348979D01*
X965102Y348677D01*
X964055Y348449D01*
X962994Y348296D01*
X961926Y348220D01*
X960854Y348220D01*
X959786Y348296D01*
X958725Y348449D01*
X957678Y348677D01*
X956650Y348979D01*
X955646Y349353D01*
X954671Y349798D01*
X953731Y350312D01*
X952830Y350891D01*
X951972Y351533D01*
X951162Y352235D01*
X950405Y352992D01*
X949703Y353802D01*
X949061Y354660D01*
X948482Y355561D01*
X947968Y356501D01*
X947523Y357476D01*
X947149Y358480D01*
X946847Y359508D01*
X946619Y360555D01*
X946466Y361616D01*
X946390Y362684D01*
X946390Y363756D01*
X946466Y364824D01*
X946619Y365885D01*
X946847Y366932D01*
X947149Y367960D01*
X947523Y368964D01*
X947968Y369939D01*
X948482Y370879D01*
X949061Y371780D01*
X949703Y372638D01*
X950405Y373448D01*
X951162Y374205D01*
X951972Y374907D01*
X952830Y375549D01*
X953731Y376128D01*
X954671Y376642D01*
X955646Y377087D01*
X956650Y377461D01*
X957678Y377763D01*
X958725Y377991D01*
X959786Y378144D01*
X960854Y378220D01*
X961926Y378220D01*
X962994Y378144D01*
X964055Y377991D01*
X965102Y377763D01*
X966130Y377461D01*
X967134Y377087D01*
X968109Y376642D01*
X969049Y376128D01*
X969950Y375549D01*
X970808Y374907D01*
X971618Y374205D01*
X972375Y373448D01*
X973077Y372638D01*
X973719Y371780D01*
X974298Y370879D01*
X974812Y369939D01*
X975257Y368964D01*
X975631Y367960D01*
X975933Y366932D01*
X976161Y365885D01*
X976314Y364824D01*
X976390Y363756D01*
X976390Y362684D01*
X483630Y268704D02*
X483554Y267636D01*
X483401Y266575D01*
X483173Y265528D01*
X482871Y264500D01*
X482497Y263496D01*
X482052Y262521D01*
X481538Y261581D01*
X480959Y260680D01*
X480317Y259822D01*
X479615Y259012D01*
X478858Y258255D01*
X478048Y257553D01*
X477190Y256911D01*
X476289Y256332D01*
X475349Y255818D01*
X474374Y255373D01*
X473370Y254999D01*
X472342Y254697D01*
X471295Y254469D01*
X470234Y254316D01*
X469166Y254240D01*
X468094Y254240D01*
X467026Y254316D01*
X465965Y254469D01*
X464918Y254697D01*
X463890Y254999D01*
X462886Y255373D01*
X461911Y255818D01*
X460971Y256332D01*
X460070Y256911D01*
X459212Y257553D01*
X458402Y258255D01*
X457645Y259012D01*
X456943Y259822D01*
X456301Y260680D01*
X455722Y261581D01*
X455208Y262521D01*
X454763Y263496D01*
X454389Y264500D01*
X454087Y265528D01*
X453859Y266575D01*
X453706Y267636D01*
X453630Y268704D01*
X453630Y269776D01*
X453706Y270844D01*
X453859Y271905D01*
X454087Y272952D01*
X454389Y273980D01*
X454763Y274984D01*
X455208Y275959D01*
X455722Y276899D01*
X456301Y277800D01*
X456943Y278658D01*
X457645Y279468D01*
X458402Y280225D01*
X459212Y280927D01*
X460070Y281569D01*
X460971Y282148D01*
X461911Y282662D01*
X462886Y283107D01*
X463890Y283481D01*
X464918Y283783D01*
X465965Y284011D01*
X467026Y284164D01*
X468094Y284240D01*
X469166Y284240D01*
X470234Y284164D01*
X471295Y284011D01*
X472342Y283783D01*
X473370Y283481D01*
X474374Y283107D01*
X475349Y282662D01*
X476289Y282148D01*
X477190Y281569D01*
X478048Y280927D01*
X478858Y280225D01*
X479615Y279468D01*
X480317Y278658D01*
X480959Y277800D01*
X481538Y276899D01*
X482052Y275959D01*
X482497Y274984D01*
X482871Y273980D01*
X483173Y272952D01*
X483401Y271905D01*
X483554Y270844D01*
X483630Y269776D01*
X483630Y268704D01*
X975995Y466916D02*
X975918Y466033D01*
X975764Y465159D01*
X975534Y464302D01*
X975231Y463468D01*
X974856Y462664D01*
X974412Y461896D01*
X973903Y461169D01*
X973333Y460489D01*
X972706Y459862D01*
X972026Y459292D01*
X971299Y458783D01*
X970531Y458339D01*
X969727Y457964D01*
X968893Y457661D01*
X968036Y457431D01*
X967162Y457277D01*
X966279Y457200D01*
X965391Y457200D01*
X964508Y457277D01*
X963634Y457431D01*
X962777Y457661D01*
X961943Y457964D01*
X961139Y458339D01*
X960371Y458783D01*
X959644Y459292D01*
X958964Y459862D01*
X958337Y460489D01*
X957767Y461169D01*
X957258Y461896D01*
X956814Y462664D01*
X956439Y463468D01*
X956136Y464302D01*
X955906Y465159D01*
X955752Y466033D01*
X955675Y466916D01*
X955675Y467804D01*
X955752Y468687D01*
X955906Y469561D01*
X956136Y470418D01*
X956439Y471252D01*
X956814Y472056D01*
X957258Y472824D01*
X957767Y473551D01*
X958337Y474231D01*
X958964Y474858D01*
X959644Y475428D01*
X960371Y475937D01*
X961139Y476381D01*
X961943Y476756D01*
X962777Y477059D01*
X963634Y477289D01*
X964508Y477443D01*
X965391Y477520D01*
X966279Y477520D01*
X967162Y477443D01*
X968036Y477289D01*
X968893Y477059D01*
X969727Y476756D01*
X970531Y476381D01*
X971299Y475937D01*
X972026Y475428D01*
X972706Y474858D01*
X973333Y474231D01*
X973903Y473551D01*
X974412Y472824D01*
X974856Y472056D01*
X975231Y471252D01*
X975534Y470418D01*
X975764Y469561D01*
X975918Y468687D01*
X975995Y467804D01*
X975995Y466916D01*
X975995Y705041D02*
X975918Y704158D01*
X975764Y703284D01*
X975534Y702427D01*
X975231Y701593D01*
X974856Y700789D01*
X974412Y700021D01*
X973903Y699294D01*
X973333Y698614D01*
X972706Y697987D01*
X972026Y697417D01*
X971299Y696908D01*
X970531Y696464D01*
X969727Y696089D01*
X968893Y695786D01*
X968036Y695556D01*
X967162Y695402D01*
X966279Y695325D01*
X965391Y695325D01*
X964508Y695402D01*
X963634Y695556D01*
X962777Y695786D01*
X961943Y696089D01*
X961139Y696464D01*
X960371Y696908D01*
X959644Y697417D01*
X958964Y697987D01*
X958337Y698614D01*
X957767Y699294D01*
X957258Y700021D01*
X956814Y700789D01*
X956439Y701593D01*
X956136Y702427D01*
X955906Y703284D01*
X955752Y704158D01*
X955675Y705041D01*
X955675Y705929D01*
X955752Y706812D01*
X955906Y707686D01*
X956136Y708543D01*
X956439Y709377D01*
X956814Y710181D01*
X957258Y710949D01*
X957767Y711676D01*
X958337Y712356D01*
X958964Y712983D01*
X959644Y713553D01*
X960371Y714062D01*
X961139Y714506D01*
X961943Y714881D01*
X962777Y715184D01*
X963634Y715414D01*
X964508Y715568D01*
X965391Y715645D01*
X966279Y715645D01*
X967162Y715568D01*
X968036Y715414D01*
X968893Y715184D01*
X969727Y714881D01*
X970531Y714506D01*
X971299Y714062D01*
X972026Y713553D01*
X972706Y712983D01*
X973333Y712356D01*
X973903Y711676D01*
X974412Y710949D01*
X974856Y710181D01*
X975231Y709377D01*
X975534Y708543D01*
X975764Y707686D01*
X975918Y706812D01*
X975995Y705929D01*
X975995Y705041D01*
X741045Y705041D02*
X740968Y704158D01*
X740814Y703284D01*
X740584Y702427D01*
X740281Y701593D01*
X739906Y700789D01*
X739462Y700021D01*
X738953Y699294D01*
X738383Y698614D01*
X737756Y697987D01*
X737076Y697417D01*
X736349Y696908D01*
X735581Y696464D01*
X734777Y696089D01*
X733943Y695786D01*
X733086Y695556D01*
X732212Y695402D01*
X731329Y695325D01*
X730441Y695325D01*
X729558Y695402D01*
X728684Y695556D01*
X727827Y695786D01*
X726993Y696089D01*
X726189Y696464D01*
X725421Y696908D01*
X724694Y697417D01*
X724014Y697987D01*
X723387Y698614D01*
X722817Y699294D01*
X722308Y700021D01*
X721864Y700789D01*
X721489Y701593D01*
X721186Y702427D01*
X720956Y703284D01*
X720802Y704158D01*
X720725Y705041D01*
X720725Y705929D01*
X720802Y706812D01*
X720956Y707686D01*
X721186Y708543D01*
X721489Y709377D01*
X721864Y710181D01*
X722308Y710949D01*
X722817Y711676D01*
X723387Y712356D01*
X724014Y712983D01*
X724694Y713553D01*
X725421Y714062D01*
X726189Y714506D01*
X726993Y714881D01*
X727827Y715184D01*
X728684Y715414D01*
X729558Y715568D01*
X730441Y715645D01*
X731329Y715645D01*
X732212Y715568D01*
X733086Y715414D01*
X733943Y715184D01*
X734777Y714881D01*
X735581Y714506D01*
X736349Y714062D01*
X737076Y713553D01*
X737756Y712983D01*
X738383Y712356D01*
X738953Y711676D01*
X739462Y710949D01*
X739906Y710181D01*
X740281Y709377D01*
X740584Y708543D01*
X740814Y707686D01*
X740968Y706812D01*
X741045Y705929D01*
X741045Y705041D01*
X741045Y466916D02*
X740968Y466033D01*
X740814Y465159D01*
X740584Y464302D01*
X740281Y463468D01*
X739906Y462664D01*
X739462Y461896D01*
X738953Y461169D01*
X738383Y460489D01*
X737756Y459862D01*
X737076Y459292D01*
X736349Y458783D01*
X735581Y458339D01*
X734777Y457964D01*
X733943Y457661D01*
X733086Y457431D01*
X732212Y457277D01*
X731329Y457200D01*
X730441Y457200D01*
X729558Y457277D01*
X728684Y457431D01*
X727827Y457661D01*
X726993Y457964D01*
X726189Y458339D01*
X725421Y458783D01*
X724694Y459292D01*
X724014Y459862D01*
X723387Y460489D01*
X722817Y461169D01*
X722308Y461896D01*
X721864Y462664D01*
X721489Y463468D01*
X721186Y464302D01*
X720956Y465159D01*
X720802Y466033D01*
X720725Y466916D01*
X720725Y467804D01*
X720802Y468687D01*
X720956Y469561D01*
X721186Y470418D01*
X721489Y471252D01*
X721864Y472056D01*
X722308Y472824D01*
X722817Y473551D01*
X723387Y474231D01*
X724014Y474858D01*
X724694Y475428D01*
X725421Y475937D01*
X726189Y476381D01*
X726993Y476756D01*
X727827Y477059D01*
X728684Y477289D01*
X729558Y477443D01*
X730441Y477520D01*
X731329Y477520D01*
X732212Y477443D01*
X733086Y477289D01*
X733943Y477059D01*
X734777Y476756D01*
X735581Y476381D01*
X736349Y475937D01*
X737076Y475428D01*
X737756Y474858D01*
X738383Y474231D01*
X738953Y473551D01*
X739462Y472824D01*
X739906Y472056D01*
X740281Y471252D01*
X740584Y470418D01*
X740814Y469561D01*
X740968Y468687D01*
X741045Y467804D01*
X741045Y466916D01*
M02*
