G04 EAGLE Gerber X2 export*
%TF.Part,Single*%
%TF.FileFunction,Soldermask,Bot,1*%
%TF.FilePolarity,Negative*%
%TF.GenerationSoftware,Autodesk,EAGLE,8.6.0*%
%TF.CreationDate,2018-02-22T08:32:46Z*%
G75*
%MOMM*%
%FSLAX34Y34*%
%LPD*%
%AMOC8*
5,1,8,0,0,1.08239X$1,22.5*%
G01*
%ADD10C,3.203200*%
%ADD11C,2.298700*%
%ADD12P,4.343848X8X292.500000*%
%ADD13R,1.981200X1.981200*%
%ADD14C,1.981200*%
%ADD15C,2.235200*%
%ADD16C,4.503200*%
%ADD17C,3.419200*%
%ADD18C,2.753200*%
%ADD19R,1.303200X1.203200*%
%ADD20R,1.203200X1.303200*%
%ADD21R,1.983200X0.923200*%
%ADD22C,1.727200*%
%ADD23C,2.978200*%
%ADD24R,4.163200X4.163200*%
%ADD25P,2.969212X8X202.500000*%
%ADD26R,1.603200X1.203200*%
%ADD27R,1.203200X1.603200*%
%ADD28R,1.422400X2.438400*%
%ADD29R,3.803200X2.403200*%
%ADD30R,2.103200X1.503200*%
%ADD31P,2.309387X8X292.500000*%
%ADD32C,2.133600*%
%ADD33C,0.959600*%


D10*
X908050Y758190D03*
X961390Y363220D03*
X468630Y269240D03*
D11*
X277178Y254000D02*
X256223Y254000D01*
X124778Y254000D02*
X103823Y254000D01*
D12*
X609600Y421640D03*
X609600Y264160D03*
X558800Y264160D03*
X558800Y421640D03*
D13*
X83700Y747698D03*
D14*
X83700Y722298D03*
X109100Y747698D03*
X109100Y722298D03*
X134500Y747698D03*
X134500Y722298D03*
X159900Y747698D03*
X159900Y722298D03*
X185300Y747698D03*
X185300Y722298D03*
X210700Y747698D03*
X210700Y722298D03*
X236100Y747698D03*
X236100Y722298D03*
X261500Y747698D03*
X261500Y722298D03*
X286900Y747698D03*
X286900Y722298D03*
X312300Y747698D03*
X312300Y722298D03*
X337700Y747698D03*
X337700Y722298D03*
X363100Y747698D03*
X363100Y722298D03*
X388500Y747698D03*
X388500Y722298D03*
X413900Y747698D03*
X413900Y722298D03*
X439300Y747698D03*
X439300Y722298D03*
X464700Y747698D03*
X464700Y722298D03*
X490100Y747698D03*
X490100Y722298D03*
X515500Y747698D03*
X515500Y722298D03*
X540900Y747698D03*
X540900Y722298D03*
X566300Y747698D03*
X566300Y722298D03*
D10*
X412700Y114300D03*
X330200Y114300D03*
X196800Y114300D03*
X114300Y114300D03*
X819200Y114300D03*
X901700Y114300D03*
X666700Y114300D03*
X584200Y114300D03*
D13*
X886460Y467360D03*
D14*
X861060Y467360D03*
X835660Y467360D03*
X810260Y467360D03*
D15*
X965835Y467360D03*
X965835Y705485D03*
X730885Y705485D03*
X730885Y467360D03*
D16*
X258920Y494030D03*
X176920Y494030D03*
D17*
X299720Y375330D03*
D16*
X157720Y345230D03*
D17*
X299720Y338030D03*
D18*
X246220Y375330D03*
X208720Y375330D03*
D19*
X859400Y561340D03*
X842400Y561340D03*
D20*
X924170Y494030D03*
X907170Y494030D03*
X947810Y410210D03*
X964810Y410210D03*
D19*
X906780Y514740D03*
X906780Y531740D03*
X861060Y645550D03*
X861060Y662550D03*
X85090Y461400D03*
X85090Y478400D03*
X59690Y461400D03*
X59690Y478400D03*
D20*
X74540Y344170D03*
X57540Y344170D03*
X57540Y321310D03*
X74540Y321310D03*
X889390Y393700D03*
X906390Y393700D03*
X920360Y421640D03*
X903360Y421640D03*
D21*
X807688Y588010D03*
X858552Y588010D03*
X807688Y600710D03*
X807688Y613410D03*
X858552Y600710D03*
X858552Y613410D03*
X807688Y626110D03*
X858552Y626110D03*
D22*
X958850Y283410D02*
X974090Y283410D01*
X974090Y308410D02*
X958850Y308410D01*
D23*
X939800Y533390D03*
X939800Y665490D03*
D24*
X939800Y599440D03*
D25*
X737362Y756920D03*
X662178Y756920D03*
D26*
X87200Y433070D03*
X65200Y442570D03*
X65200Y423570D03*
X53770Y373380D03*
X75770Y363880D03*
X75770Y382880D03*
D27*
X916940Y353900D03*
X907440Y331900D03*
X926440Y331900D03*
D28*
X773176Y352298D03*
X796290Y352298D03*
X819404Y352298D03*
D29*
X796290Y290320D03*
D30*
X770380Y633290D03*
X770380Y578290D03*
X738380Y578290D03*
X738380Y633290D03*
D22*
X38100Y562810D02*
X22860Y562810D01*
X22860Y587810D02*
X38100Y587810D01*
X38100Y668220D02*
X22860Y668220D01*
X22860Y693220D02*
X38100Y693220D01*
D31*
X35560Y449580D03*
D32*
X35560Y396240D03*
D33*
X373380Y563880D03*
X645160Y347980D03*
X502920Y566420D03*
X623570Y590550D03*
X374650Y400050D03*
X377825Y412750D03*
X390525Y415925D03*
X400050Y409575D03*
X396875Y396875D03*
X387350Y403225D03*
X384175Y390525D03*
X396875Y384175D03*
X409575Y377825D03*
X406400Y390525D03*
X409575Y403225D03*
X79375Y244475D03*
X98425Y222250D03*
X85725Y231775D03*
X104775Y234950D03*
X117475Y225425D03*
X130175Y234950D03*
X136525Y222250D03*
X76200Y219075D03*
X66675Y231775D03*
X250190Y335280D03*
X254000Y345440D03*
X260350Y336550D03*
X264160Y346710D03*
X264160Y356870D03*
X273050Y353060D03*
X274320Y363220D03*
X379730Y539750D03*
X104140Y532130D03*
X469900Y377825D03*
X479425Y387350D03*
X482600Y377825D03*
X495300Y377825D03*
X492125Y387350D03*
X485775Y396875D03*
X495300Y403225D03*
X508000Y406400D03*
X504825Y393700D03*
X508000Y384175D03*
X260350Y685800D03*
X622300Y685800D03*
X862330Y422910D03*
X901700Y586740D03*
X671830Y660400D03*
X830580Y637540D03*
X890270Y640080D03*
X812800Y190500D03*
X800100Y196850D03*
X796925Y209550D03*
X803275Y219075D03*
X815975Y225425D03*
X815975Y212725D03*
X809625Y203200D03*
X822325Y200025D03*
X831850Y193675D03*
X831850Y206375D03*
X825500Y219075D03*
X844550Y203200D03*
X889000Y203200D03*
X898525Y212725D03*
X904875Y222250D03*
X917575Y228600D03*
X914400Y215900D03*
X908050Y206375D03*
X901700Y196850D03*
X917575Y196850D03*
X923925Y206375D03*
X930275Y219075D03*
X939800Y225425D03*
X939800Y212725D03*
X936625Y200025D03*
X501650Y476250D03*
X487680Y497840D03*
X82550Y495300D03*
X99060Y593090D03*
X234950Y666750D03*
X833120Y660400D03*
X789940Y648970D03*
X666750Y406400D03*
X622300Y552450D03*
X469900Y698500D03*
X377190Y501650D03*
X453390Y520700D03*
X731520Y514350D03*
X565150Y538480D03*
X571500Y617220D03*
X218440Y553720D03*
X861060Y688340D03*
X942340Y492760D03*
X982980Y433070D03*
X880940Y444060D03*
X755650Y441960D03*
X803910Y441960D03*
X911860Y571500D03*
X911860Y661670D03*
X941070Y388620D03*
X914400Y453390D03*
X868680Y539750D03*
X518160Y640080D03*
X502920Y609600D03*
X304800Y609600D03*
X96520Y331470D03*
X477520Y353060D03*
X795020Y265430D03*
X906780Y265430D03*
X271780Y675640D03*
X313690Y675612D03*
X400050Y461010D03*
X476250Y467360D03*
X754380Y388620D03*
X887730Y408940D03*
X547370Y610870D03*
X530860Y538480D03*
X890270Y337820D03*
X814070Y383540D03*
X858520Y378460D03*
X833120Y613410D03*
X730250Y266700D03*
X844550Y349250D03*
X322580Y633730D03*
X193675Y606425D03*
X231775Y635000D03*
X38100Y346075D03*
X482600Y654050D03*
X807720Y401320D03*
X372110Y334010D03*
X750570Y410210D03*
X132080Y547370D03*
X166370Y678180D03*
X462280Y579120D03*
X652780Y703580D03*
X787400Y556260D03*
X787400Y628650D03*
X623570Y487680D03*
X665480Y619760D03*
X708660Y683260D03*
X708660Y621030D03*
X467360Y490220D03*
X410210Y500380D03*
X16510Y370840D03*
X918210Y318742D03*
X410210Y628650D03*
X34290Y492760D03*
X44450Y424180D03*
X83820Y660400D03*
X257810Y593090D03*
X435610Y579120D03*
X499110Y535940D03*
M02*
