G04 EAGLE Gerber X2 export*
%TF.Part,Single*%
%TF.FileFunction,Paste,Bot*%
%TF.FilePolarity,Positive*%
%TF.GenerationSoftware,Autodesk,EAGLE,8.6.0*%
%TF.CreationDate,2018-02-22T08:32:46Z*%
G75*
%MOMM*%
%FSLAX34Y34*%
%LPD*%
%AMOC8*
5,1,8,0,0,1.08239X$1,22.5*%
G01*
%ADD10R,1.100000X1.000000*%
%ADD11R,1.000000X1.100000*%
%ADD12R,1.780000X0.720000*%
%ADD13R,3.960000X3.960000*%
%ADD14R,1.400000X1.000000*%
%ADD15R,1.000000X1.400000*%
%ADD16R,1.219200X2.235200*%
%ADD17R,3.600000X2.200000*%
%ADD18R,1.900000X1.300000*%


D10*
X859400Y561340D03*
X842400Y561340D03*
D11*
X924170Y494030D03*
X907170Y494030D03*
X947810Y410210D03*
X964810Y410210D03*
D10*
X906780Y514740D03*
X906780Y531740D03*
X861060Y645550D03*
X861060Y662550D03*
X85090Y461400D03*
X85090Y478400D03*
X59690Y461400D03*
X59690Y478400D03*
D11*
X74540Y344170D03*
X57540Y344170D03*
X57540Y321310D03*
X74540Y321310D03*
X889390Y393700D03*
X906390Y393700D03*
X920360Y421640D03*
X903360Y421640D03*
D12*
X807688Y588010D03*
X858552Y588010D03*
X807688Y600710D03*
X807688Y613410D03*
X858552Y600710D03*
X858552Y613410D03*
X807688Y626110D03*
X858552Y626110D03*
D13*
X939800Y599440D03*
D14*
X87200Y433070D03*
X65200Y442570D03*
X65200Y423570D03*
X53770Y373380D03*
X75770Y363880D03*
X75770Y382880D03*
D15*
X916940Y353900D03*
X907440Y331900D03*
X926440Y331900D03*
D16*
X773176Y352298D03*
X796290Y352298D03*
X819404Y352298D03*
D17*
X796290Y290320D03*
D18*
X770380Y633290D03*
X770380Y578290D03*
X738380Y578290D03*
X738380Y633290D03*
M02*
