G04 EAGLE Gerber X2 export*
%TF.Part,Single*%
%TF.FileFunction,Paste,Top*%
%TF.FilePolarity,Positive*%
%TF.GenerationSoftware,Autodesk,EAGLE,8.6.0*%
%TF.CreationDate,2018-02-22T08:32:46Z*%
G75*
%MOMM*%
%FSLAX34Y34*%
%LPD*%
%AMOC8*
5,1,8,0,0,1.08239X$1,22.5*%
G01*
%ADD10R,1.000000X1.100000*%
%ADD11R,1.100000X1.000000*%
%ADD12R,1.000000X1.400000*%
%ADD13R,0.600000X1.500000*%
%ADD14R,0.600000X2.200000*%
%ADD15R,0.660400X2.032000*%
%ADD16R,1.400000X1.600000*%


D10*
X425450Y474100D03*
X425450Y491100D03*
X450850Y474100D03*
X450850Y491100D03*
X844550Y309000D03*
X844550Y326000D03*
X869950Y326000D03*
X869950Y309000D03*
X385200Y307340D03*
X402200Y307340D03*
X402200Y334010D03*
X385200Y334010D03*
X42300Y266700D03*
X59300Y266700D03*
D11*
X38100Y326000D03*
X38100Y309000D03*
D10*
X262500Y635000D03*
X245500Y635000D03*
D11*
X292100Y651900D03*
X292100Y668900D03*
D10*
X696350Y266700D03*
X713350Y266700D03*
X713350Y302260D03*
X696350Y302260D03*
D12*
X203200Y646000D03*
X212700Y624000D03*
X193700Y624000D03*
D13*
X438150Y391600D03*
X438150Y446600D03*
X425450Y391600D03*
X450850Y391600D03*
X463550Y391600D03*
X425450Y446600D03*
X450850Y446600D03*
X463550Y446600D03*
X857250Y226500D03*
X857250Y281500D03*
X844550Y226500D03*
X869950Y226500D03*
X882650Y226500D03*
X844550Y281500D03*
X869950Y281500D03*
X882650Y281500D03*
D11*
X841620Y427990D03*
X824620Y427990D03*
X841620Y401320D03*
X824620Y401320D03*
X356480Y646430D03*
X339480Y646430D03*
X356480Y614680D03*
X339480Y614680D03*
D14*
X397510Y601380D03*
X422910Y653380D03*
X384810Y601380D03*
X410210Y601380D03*
X422910Y601380D03*
X410210Y653380D03*
X435610Y653380D03*
X448310Y653380D03*
X448310Y601380D03*
X473710Y653380D03*
X435610Y601380D03*
X461010Y601380D03*
X461010Y653380D03*
X473710Y601380D03*
X397510Y653380D03*
X384810Y653380D03*
D11*
X747640Y427990D03*
X730640Y427990D03*
D10*
X964810Y433070D03*
X947810Y433070D03*
X876690Y666750D03*
X893690Y666750D03*
X852560Y518160D03*
X869560Y518160D03*
X594750Y524510D03*
X611750Y524510D03*
X592210Y617220D03*
X609210Y617220D03*
D15*
X881380Y365506D03*
X881380Y426974D03*
X894080Y365506D03*
X906780Y365506D03*
X894080Y426974D03*
X906780Y426974D03*
X919480Y365506D03*
X919480Y426974D03*
D16*
X686710Y598080D03*
X686710Y682080D03*
X664210Y682080D03*
X641710Y682080D03*
X641710Y598080D03*
X686710Y481240D03*
X686710Y565240D03*
X664210Y565240D03*
X641710Y565240D03*
X641710Y481240D03*
D11*
X458470Y546490D03*
X458470Y563490D03*
X436880Y546490D03*
X436880Y563490D03*
M02*
